<svg width="14" height="12" viewBox="0 0 14 12" fill="none" xmlns="http://www.w3.org/2000/svg">
<path d="M0.999878 5.00054H10.9999L7.70988 1.71054C7.52057 1.52278 7.41408 1.26718 7.41408 1.00055C7.41408 0.733909 7.52057 0.478314 7.70988 0.290548C8.09992 -0.0971745 8.72984 -0.0971749 9.11988 0.290548L13.4099 4.59054C13.7855 4.96389 13.9976 5.47096 13.9999 6.00054C13.995 6.52664 13.783 7.02964 13.4099 7.40053L9.11988 11.7005C8.72776 12.0899 8.09424 12.0876 7.70488 11.6955C7.31552 11.3034 7.31776 10.6699 7.70988 10.2805L10.9999 7.00053H0.999878C0.447594 7.00053 -0.00012207 6.55282 -0.00012207 6.00054C-0.00012207 5.44825 0.447594 5.00054 0.999878 5.00054Z" fill="#FC7433"/>
</svg>
