<svg width="38" height="38" viewBox="0 0 38 38" fill="none" xmlns="http://www.w3.org/2000/svg">
<path d="M18.9998 37.9998C13.9249 37.9998 9.15369 36.0234 5.56494 32.4348C1.9762 28.8461 -0.00012207 24.0748 -0.00012207 18.9999C-0.00012207 13.925 1.9762 9.15374 5.56494 5.56503C9.15369 1.97637 13.9249 0 18.9998 0C24.0751 0 28.8464 1.97637 32.4349 5.56503C36.0234 9.15363 37.9996 13.9249 37.9996 18.9999C37.9996 24.0749 36.0234 28.8462 32.4349 32.4348C28.8464 36.0234 24.0751 37.9998 18.9998 37.9998ZM18.9998 10.0224C16.5865 10.0224 16.2662 10.0327 15.2981 10.0764C13.6866 10.1506 12.4185 10.6393 11.5289 11.529C10.6393 12.4186 10.1505 13.6867 10.0763 15.2982C10.0326 16.2663 10.0222 16.5867 10.0222 18.9999C10.0222 21.4131 10.0326 21.7335 10.0763 22.7016C10.1505 24.3138 10.6393 25.582 11.5289 26.4708C12.4194 27.3614 13.6876 27.8502 15.2981 27.9234C16.2466 27.9671 16.5632 27.9774 18.9998 27.9774C21.4363 27.9774 21.7529 27.9671 22.7014 27.9234C24.3118 27.8503 25.58 27.3615 26.4707 26.4708C27.3615 25.5801 27.8501 24.3119 27.9232 22.7016C27.9669 21.755 27.9773 21.4387 27.9773 18.9999C27.9773 16.5611 27.9669 16.2449 27.9232 15.2982C27.8501 13.6879 27.3615 12.4198 26.4707 11.529C25.5802 10.6385 24.312 10.1497 22.7014 10.0764C21.7333 10.0327 21.413 10.0224 18.9998 10.0224ZM18.9998 26.3601C16.5997 26.3601 16.3162 26.351 15.3718 26.3079C14.1772 26.2533 13.2692 25.9233 12.6727 25.3269C12.0686 24.7227 11.7477 23.8398 11.6918 22.6278C11.6487 21.6826 11.6395 21.3989 11.6395 18.9999C11.6395 16.6009 11.6487 16.3172 11.6918 15.372C11.7461 14.1777 12.0762 13.2696 12.6727 12.6729C13.2856 12.0601 14.1433 11.7484 15.3718 11.6919C16.3162 11.6488 16.5997 11.6397 18.9998 11.6397C21.3999 11.6397 21.6835 11.6488 22.6277 11.6919C23.8396 11.7477 24.7224 12.0685 25.3268 12.6729C25.9397 13.2859 26.2515 14.1436 26.3077 15.372C26.3508 16.3172 26.36 16.6009 26.36 18.9999C26.36 21.3989 26.3508 21.6826 26.3077 22.6278C26.2529 23.8387 25.932 24.7216 25.3268 25.3269C24.7137 25.9399 23.8562 26.2516 22.6277 26.3079C21.6835 26.351 21.3999 26.3601 18.9998 26.3601ZM18.9998 14.3901C16.4579 14.3901 14.39 16.4581 14.39 18.9999C14.39 21.5418 16.4579 23.6097 18.9998 23.6097C21.5416 23.6097 23.6096 21.5418 23.6096 18.9999C23.6096 16.4581 21.5416 14.3901 18.9998 14.3901ZM23.7922 13.1301C23.1982 13.1301 22.715 13.6134 22.715 14.2074C22.715 14.8014 23.1982 15.2847 23.7922 15.2847C24.3864 15.2847 24.8696 14.8014 24.8696 14.2074C24.8696 13.6134 24.3864 13.1301 23.7922 13.1301ZM18.9998 21.9924C17.3497 21.9924 16.0073 20.65 16.0073 18.9999C16.0073 17.3498 17.3497 16.0074 18.9998 16.0074C20.6499 16.0074 21.9923 17.3498 21.9923 18.9999C21.9923 20.65 20.6499 21.9924 18.9998 21.9924Z" fill="#FC7433"/>
</svg>
