<svg width="38" height="38" viewBox="0 0 38 38" fill="none" xmlns="http://www.w3.org/2000/svg">
<path d="M18.9998 37.9998C13.9249 37.9998 9.15369 36.0234 5.56494 32.4348C1.9762 28.8461 -0.00012207 24.0748 -0.00012207 18.9999C-0.00012207 13.925 1.9762 9.15374 5.56494 5.56503C9.15369 1.97637 13.9249 0 18.9998 0C24.0751 0 28.8464 1.97637 32.4349 5.56503C36.0234 9.15363 37.9996 13.9249 37.9996 18.9999C37.9996 24.0749 36.0234 28.8462 32.4349 32.4348C28.8464 36.0234 24.0751 37.9998 18.9998 37.9998ZM15.2521 27.9513L15.2531 27.9523V27.9549C22.6327 27.9539 27.0421 21.9603 27.0421 16.1658C27.0421 15.9901 27.0421 15.8085 27.0305 15.6303C27.8441 15.0425 28.5396 14.3212 29.0978 13.4856C28.3401 13.8207 27.5388 14.04 26.7173 14.139C27.5817 13.6209 28.2288 12.8074 28.5388 11.8467C27.7208 12.3317 26.835 12.6695 25.9072 12.852C25.1267 12.0217 24.0258 11.5457 22.8856 11.5457C21.8263 11.5457 20.8176 11.9457 20.0455 12.672C18.9735 13.6813 18.5143 15.1983 18.8468 16.6311C15.5198 16.4639 12.4077 14.8856 10.3076 12.3021C9.21069 14.1897 9.77368 16.619 11.5909 17.8326C10.9342 17.8138 10.2839 17.6339 9.70996 17.3142V17.3664C9.70996 19.3309 11.1082 21.039 13.0345 21.4281C12.677 21.5251 12.3104 21.5733 11.9451 21.5733C11.6835 21.5733 11.4205 21.5484 11.1635 21.4992C11.7061 23.1864 13.2612 24.3432 15.0344 24.3765C13.5751 25.5233 11.7504 26.154 9.89709 26.154H9.88904C9.55798 26.1531 9.2262 26.1328 8.90271 26.0937C10.7952 27.3083 12.9844 27.9513 15.2344 27.9513L15.2521 27.9513Z" fill="#FC7433"/>
</svg>
