<svg width="38" height="38" viewBox="0 0 38 38" fill="none" xmlns="http://www.w3.org/2000/svg">
<path d="M18.9998 37.9998C13.9249 37.9998 9.15369 36.0234 5.56494 32.4348C1.9762 28.8461 -0.00012207 24.0748 -0.00012207 18.9999C-0.00012207 13.925 1.9762 9.15374 5.56494 5.56503C9.15369 1.97637 13.9249 0 18.9998 0C24.0751 0 28.8464 1.97637 32.4349 5.56503C36.0234 9.15363 37.9996 13.9249 37.9996 18.9999C37.9996 24.0749 36.0234 28.8462 32.4349 32.4348C28.8464 36.0234 24.0751 37.9998 18.9998 37.9998ZM18.9998 11.8845C18.9366 11.8845 12.6655 11.8894 11.1077 12.3093C10.2386 12.5434 9.55481 13.2321 9.323 14.1066C8.90491 15.674 8.90002 18.9668 8.90002 18.9999C8.90002 19.033 8.90491 22.3258 9.323 23.8932C9.55518 24.7679 10.2394 25.4566 11.1085 25.6905C12.6655 26.1104 18.9366 26.1153 18.9998 26.1153C19.0629 26.1153 25.334 26.1104 26.8918 25.6905C27.7601 25.4566 28.4443 24.7679 28.6775 23.8932C29.0947 22.3258 29.0996 19.033 29.0996 18.9999C29.0996 18.9668 29.0947 15.674 28.6765 14.1066C28.4443 13.2319 27.7601 12.5432 26.891 12.3093C25.334 11.8894 19.0629 11.8845 18.9998 11.8845ZM16.9343 22.0041V22.0024V15.9957L22.2136 18.9999L16.9358 22.0033L16.9343 22.0041Z" fill="#FC7433"/>
</svg>
