<svg width="218" height="63" viewBox="0 0 218 63" fill="none" xmlns="http://www.w3.org/2000/svg">
<path d="M78.9731 32.5278C77.5401 30.3912 75.5922 28.7522 73.1381 27.6281C72.5116 27.3449 71.8595 27.0875 71.1902 26.8815C73.2925 25.7832 74.9915 24.2558 76.2701 22.2993C77.6345 20.2313 78.3124 17.7343 78.3124 14.8082C78.3124 10.4748 76.5876 7.00811 73.1381 4.41667C69.6885 1.83381 64.6687 0.538086 58.0785 0.538086H32.4473C36.7978 3.94472 38.9945 8.52693 38.9945 14.1217C38.9945 17.9316 38.0678 21.2696 36.24 24.0498C35.6823 24.8908 35.073 25.6888 34.3866 26.4182C36.2658 27.7139 37.8533 29.3185 39.1232 31.2149C41.0454 34.081 42.0236 37.6077 42.0236 41.7008C42.0236 47.4157 39.9556 52.0237 35.8539 55.4217H59.6488C66.7538 55.4217 72.1169 54.1174 75.7209 51.5088C79.3335 48.8916 81.1355 45.2276 81.1355 40.5252C81.1355 37.3417 80.4147 34.673 78.9731 32.5278ZM45.1299 8.53551H56.9802C60.5412 8.53551 63.27 9.16192 65.1749 10.4147C67.0885 11.6761 68.041 13.5811 68.041 16.1382C68.041 18.6524 67.0885 20.5317 65.1749 21.7845C63.27 23.0459 60.5412 23.6723 56.9802 23.6723H45.1299V8.53551ZM67.8007 45.5451C65.767 46.7979 62.8409 47.4243 59.0224 47.4243H45.1299V31.5925H59.0224C62.8409 31.5925 65.767 32.2275 67.8007 33.506C69.843 34.7932 70.8641 36.7925 70.8641 39.5041C70.8641 42.2757 69.843 44.2923 67.8007 45.5451Z" fill="#181528"/>
<path d="M27.5818 40.6025C27.5818 43.5715 26.4834 45.7339 24.2953 47.0811C22.1157 48.4283 18.9751 49.0976 14.882 49.0976H0.654785V32.1245H14.882C18.9751 32.1245 22.1157 32.8024 24.2953 34.1754C26.4834 35.5569 27.5818 37.6935 27.5818 40.6025Z" fill="#FC7433"/>
<path d="M24.5527 15.5547C24.5527 18.2491 23.5316 20.2656 21.4807 21.6043C19.4384 22.9601 16.5123 23.6294 12.6938 23.6294H0.654785V7.40283H12.6938C16.5123 7.40283 19.4384 8.07214 21.4807 9.41077C23.5316 10.7666 24.5527 12.8088 24.5527 15.5547Z" fill="#FC7433"/>
<path d="M99.632 31V11.4H108.816C111.168 11.4 112.96 11.8667 114.192 12.8C115.424 13.7147 116.04 14.9467 116.04 16.496C116.04 17.5413 115.797 18.4373 115.312 19.184C114.827 19.912 114.173 20.4813 113.352 20.892C112.549 21.284 111.672 21.48 110.72 21.48L111.224 20.472C112.325 20.472 113.315 20.6773 114.192 21.088C115.069 21.48 115.76 22.0587 116.264 22.824C116.787 23.5893 117.048 24.5413 117.048 25.68C117.048 27.36 116.404 28.6667 115.116 29.6C113.828 30.5333 111.915 31 109.376 31H99.632ZM103.272 28.144H109.152C110.515 28.144 111.56 27.92 112.288 27.472C113.016 27.024 113.38 26.3053 113.38 25.316C113.38 24.3453 113.016 23.636 112.288 23.188C111.56 22.7213 110.515 22.488 109.152 22.488H102.992V19.66H108.424C109.693 19.66 110.664 19.436 111.336 18.988C112.027 18.54 112.372 17.868 112.372 16.972C112.372 16.0573 112.027 15.376 111.336 14.928C110.664 14.48 109.693 14.256 108.424 14.256H103.272V28.144ZM124.293 19.548H134.037V22.544H124.293V19.548ZM124.573 27.948H135.633V31H120.933V11.4H135.241V14.452H124.573V27.948ZM143.667 31V14.48H137.171V11.4H153.803V14.48H147.307V31H143.667ZM160.784 31V14.48H154.288V11.4H170.92V14.48H164.424V31H160.784ZM177.012 19.548H186.756V22.544H177.012V19.548ZM177.292 27.948H188.352V31H173.652V11.4H187.96V14.452H177.292V27.948ZM192.409 31V11.4H200.473C202.209 11.4 203.693 11.68 204.925 12.24C206.176 12.8 207.137 13.6027 207.809 14.648C208.481 15.6933 208.817 16.9347 208.817 18.372C208.817 19.8093 208.481 21.0507 207.809 22.096C207.137 23.1227 206.176 23.916 204.925 24.476C203.693 25.0173 202.209 25.288 200.473 25.288H194.425L196.049 23.636V31H192.409ZM205.233 31L200.277 23.888H204.169L209.153 31H205.233ZM196.049 24.028L194.425 22.292H200.305C201.911 22.292 203.115 21.9467 203.917 21.256C204.739 20.5653 205.149 19.604 205.149 18.372C205.149 17.1213 204.739 16.16 203.917 15.488C203.115 14.816 201.911 14.48 200.305 14.48H194.425L196.049 12.688V24.028Z" fill="#FC7433"/>
<path d="M98.974 57V42.3H105.862C107.626 42.3 108.97 42.65 109.894 43.35C110.818 44.036 111.28 44.96 111.28 46.122C111.28 46.906 111.098 47.578 110.734 48.138C110.37 48.684 109.88 49.111 109.264 49.419C108.662 49.713 108.004 49.86 107.29 49.86L107.668 49.104C108.494 49.104 109.236 49.258 109.894 49.566C110.552 49.86 111.07 50.294 111.448 50.868C111.84 51.442 112.036 52.156 112.036 53.01C112.036 54.27 111.553 55.25 110.587 55.95C109.621 56.65 108.186 57 106.282 57H98.974ZM101.704 54.858H106.114C107.136 54.858 107.92 54.69 108.466 54.354C109.012 54.018 109.285 53.479 109.285 52.737C109.285 52.009 109.012 51.477 108.466 51.141C107.92 50.791 107.136 50.616 106.114 50.616H101.494V48.495H105.568C106.52 48.495 107.248 48.327 107.752 47.991C108.27 47.655 108.529 47.151 108.529 46.479C108.529 45.793 108.27 45.282 107.752 44.946C107.248 44.61 106.52 44.442 105.568 44.442H101.704V54.858ZM121.271 57.21C119.255 57.21 117.673 56.643 116.525 55.509C115.391 54.375 114.824 52.737 114.824 50.595V42.3H117.554V50.49C117.554 52.002 117.876 53.101 118.52 53.787C119.178 54.473 120.102 54.816 121.292 54.816C122.482 54.816 123.399 54.473 124.043 53.787C124.687 53.101 125.009 52.002 125.009 50.49V42.3H127.697V50.595C127.697 52.737 127.123 54.375 125.975 55.509C124.841 56.643 123.273 57.21 121.271 57.21ZM131.52 57V42.3H134.25V57H131.52ZM138.226 57V42.3H140.956V54.69H148.642V57H138.226ZM150.797 57V42.3H157.223C158.819 42.3 160.219 42.608 161.423 43.224C162.627 43.84 163.565 44.694 164.237 45.786C164.909 46.878 165.245 48.166 165.245 49.65C165.245 51.12 164.909 52.408 164.237 53.514C163.565 54.606 162.627 55.46 161.423 56.076C160.219 56.692 158.819 57 157.223 57H150.797ZM153.527 54.69H157.097C158.203 54.69 159.155 54.48 159.953 54.06C160.765 53.64 161.388 53.052 161.822 52.296C162.27 51.54 162.494 50.658 162.494 49.65C162.494 48.628 162.27 47.746 161.822 47.004C161.388 46.248 160.765 45.66 159.953 45.24C159.155 44.82 158.203 44.61 157.097 44.61H153.527V54.69ZM170.667 48.411H177.975V50.658H170.667V48.411ZM170.877 54.711H179.172V57H168.147V42.3H178.878V44.589H170.877V54.711ZM182.215 57V42.3H188.263C189.565 42.3 190.678 42.51 191.602 42.93C192.54 43.35 193.261 43.952 193.765 44.736C194.269 45.52 194.521 46.451 194.521 47.529C194.521 48.607 194.269 49.538 193.765 50.322C193.261 51.092 192.54 51.687 191.602 52.107C190.678 52.513 189.565 52.716 188.263 52.716H183.727L184.945 51.477V57H182.215ZM191.833 57L188.116 51.666H191.035L194.773 57H191.833ZM184.945 51.771L183.727 50.469H188.137C189.341 50.469 190.244 50.21 190.846 49.692C191.462 49.174 191.77 48.453 191.77 47.529C191.77 46.591 191.462 45.87 190.846 45.366C190.244 44.862 189.341 44.61 188.137 44.61H183.727L184.945 43.266V51.771ZM202.133 57.21C200.985 57.21 199.886 57.049 198.836 56.727C197.786 56.391 196.953 55.964 196.337 55.446L197.282 53.325C197.87 53.787 198.598 54.172 199.466 54.48C200.334 54.788 201.223 54.942 202.133 54.942C202.903 54.942 203.526 54.858 204.002 54.69C204.478 54.522 204.828 54.298 205.052 54.018C205.276 53.724 205.388 53.395 205.388 53.031C205.388 52.583 205.227 52.226 204.905 51.96C204.583 51.68 204.163 51.463 203.645 51.309C203.141 51.141 202.574 50.987 201.944 50.847C201.328 50.707 200.705 50.546 200.075 50.364C199.459 50.168 198.892 49.923 198.374 49.629C197.87 49.321 197.457 48.915 197.135 48.411C196.813 47.907 196.652 47.263 196.652 46.479C196.652 45.681 196.862 44.953 197.282 44.295C197.716 43.623 198.367 43.091 199.235 42.699C200.117 42.293 201.23 42.09 202.574 42.09C203.456 42.09 204.331 42.202 205.199 42.426C206.067 42.65 206.823 42.972 207.467 43.392L206.606 45.513C205.948 45.121 205.269 44.834 204.569 44.652C203.869 44.456 203.197 44.358 202.553 44.358C201.797 44.358 201.181 44.449 200.705 44.631C200.243 44.813 199.9 45.051 199.676 45.345C199.466 45.639 199.361 45.975 199.361 46.353C199.361 46.801 199.515 47.165 199.823 47.445C200.145 47.711 200.558 47.921 201.062 48.075C201.58 48.229 202.154 48.383 202.784 48.537C203.414 48.677 204.037 48.838 204.653 49.02C205.283 49.202 205.85 49.44 206.354 49.734C206.872 50.028 207.285 50.427 207.593 50.931C207.915 51.435 208.076 52.072 208.076 52.842C208.076 53.626 207.859 54.354 207.425 55.026C207.005 55.684 206.354 56.216 205.472 56.622C204.59 57.014 203.477 57.21 202.133 57.21Z" fill="#181528"/>
</svg>
