<svg width="97" height="52" viewBox="0 0 97 52" fill="none" xmlns="http://www.w3.org/2000/svg">
<path opacity="0.2" d="M36.2012 23.5376V48.3517C36.2012 49.4263 34.9232 50.297 33.3441 50.297H8.10467C7.384 50.297 6.79785 49.4263 6.79785 48.3517V24.3145L20.9582 10.0042C21.4707 9.48625 22.2971 9.48625 22.8095 10.0042L36.2012 23.5376Z" fill="white"/>
<path d="M80.6487 50.054H52.3458C51.6149 50.054 51.0264 49.4631 51.0264 48.7365V26.028" stroke="white" stroke-width="2" stroke-miterlimit="10" stroke-linecap="round"/>
<path d="M90.3504 26.028V48.7365C90.3504 49.4663 89.7586 50.054 89.031 50.054H83.4299" stroke="white" stroke-width="2" stroke-miterlimit="10" stroke-linecap="round"/>
<path d="M87.3008 17.9902L95.9999 26.6738" stroke="white" stroke-width="2" stroke-miterlimit="10" stroke-linecap="round"/>
<path d="M44.1284 26.028L68.8062 1.3851C69.3204 0.871635 70.158 0.871635 70.6721 1.3851L84.1477 14.8416" stroke="white" stroke-width="2" stroke-miterlimit="10" stroke-linecap="round"/>
<path d="M88.1514 18.8362V4.93076H88.727C89.0989 4.93076 89.3996 4.63044 89.3996 4.25907V1.89844C89.3996 1.52707 89.0989 1.22675 88.727 1.22675H79.7271C79.3552 1.22675 79.0544 1.52707 79.0544 1.89844V4.06854C79.0544 4.43991 79.3552 4.74024 79.7271 4.74024H80.5194V11.1666" stroke="white" stroke-width="2" stroke-miterlimit="10" stroke-linecap="round"/>
<path d="M64.8674 13.5628L68.7707 9.665C69.4789 8.95778 70.627 8.95778 71.3352 9.665L81.8615 20.1764" stroke="white" stroke-width="2" stroke-miterlimit="10" stroke-linecap="round"/>
<path d="M72.8875 50.054V31.1787C72.8875 30.6879 73.2852 30.2906 73.7768 30.2906H84.3289C84.8205 30.2906 85.2183 30.6879 85.2183 31.1787V50.054" stroke="white" stroke-width="2" stroke-miterlimit="10" stroke-linecap="round"/>
<path d="M56.8733 30.2906H65.8311C66.3227 30.2906 66.7204 30.6879 66.7204 31.1787V40.7149C66.7204 41.5932 66.009 42.3037 65.1294 42.3037H57.5718C56.6922 42.3037 55.9807 41.5932 55.9807 40.7149V31.1787C55.9807 30.6879 56.3785 30.2906 56.87 30.2906H56.8733Z" stroke="white" stroke-width="2" stroke-miterlimit="10" stroke-linecap="round"/>
<path d="M16.9106 20.7739L20.898 16.7921C21.6062 16.0849 22.7543 16.0849 23.4625 16.7921L34.241 27.5554" stroke="white" stroke-width="2" stroke-miterlimit="10" stroke-linecap="round"/>
<path d="M26.829 50.054H7.94638C7.21552 50.054 6.62695 49.463 6.62695 48.7364V29.7545" stroke="white" stroke-width="2" stroke-miterlimit="10" stroke-linecap="round"/>
<path d="M36.314 29.7513V48.7332C36.314 49.463 35.7222 50.0507 34.9946 50.0507H29.7395" stroke="white" stroke-width="2" stroke-miterlimit="10" stroke-linecap="round"/>
<path d="M21.9556 50.054V33.5458C21.9556 33.0549 22.3533 32.6577 22.8449 32.6577H30.6385C31.1301 32.6577 31.5279 33.0549 31.5279 33.5458V50.054" stroke="white" stroke-width="2" stroke-miterlimit="10" stroke-linecap="round"/>
<path d="M1 29.7513L20.924 9.85549C21.4381 9.34203 22.2757 9.34203 22.7899 9.85549L42.5198 29.5575" stroke="white" stroke-width="2" stroke-miterlimit="10" stroke-linecap="round"/>
<path d="M60.8898 32.1894L58.3027 34.7728" stroke="white" stroke-width="2" stroke-miterlimit="10" stroke-linecap="round"/>
<path d="M63.7193 33.4811L58.7456 38.4478" stroke="white" stroke-width="2" stroke-miterlimit="10" stroke-linecap="round"/>
<path d="M75.8302 42.3036C76.3124 42.3036 76.7033 41.9133 76.7033 41.4317C76.7033 40.9502 76.3124 40.5598 75.8302 40.5598C75.348 40.5598 74.957 40.9502 74.957 41.4317C74.957 41.9133 75.348 42.3036 75.8302 42.3036Z" fill="white"/>
</svg>
