<svg width="66" height="69" viewBox="0 0 66 69" fill="none" xmlns="http://www.w3.org/2000/svg">
<path d="M7.20944 68.4688C6.88766 68.3545 6.55729 68.258 6.24413 68.1205C4.04335 67.1524 3.09868 64.4802 4.19821 62.2528C4.8039 61.0257 5.46466 59.8272 6.12541 58.6286C6.31985 58.2768 6.33189 58.0356 6.07895 57.6855C3.89022 54.6669 2.81477 51.257 2.82854 47.4774C2.8337 45.8073 2.82854 44.1372 2.82854 42.4564C1.39004 41.842 0.421276 40.8239 0.0909012 39.2288C-0.444236 36.6352 1.45026 34.1256 4.01583 34.1042C7.81513 34.0738 11.6144 34.1042 15.4137 34.0792C15.7871 34.0774 16.1588 33.8523 16.5322 33.7327C17.279 33.4951 18.0257 33.0718 18.776 33.0575C22.5736 32.9878 26.3729 33.0253 30.1722 33.0253C31.0377 33.0253 31.8051 33.3236 32.5244 33.8095C32.7429 33.9559 33.0251 34.0828 33.2763 34.0828C42.2274 34.097 51.1768 34.0935 60.1278 34.0935C60.2328 34.0935 60.3378 34.081 60.5288 34.0685V33.3451C60.5288 24.766 60.5288 16.1851 60.5288 7.60599C60.5288 4.56588 58.7134 2.66537 55.8003 2.67787C54.687 2.68323 53.553 2.6225 52.4673 2.82077C50.7844 3.12621 49.7417 4.29438 49.1842 6.00377C49.3167 6.0645 49.4234 6.12166 49.5352 6.16453C52.0354 7.10049 53.4722 8.9242 53.7544 11.6785C53.8198 12.318 53.8146 12.9717 53.7836 13.6147C53.7406 14.4685 53.233 14.9687 52.4071 14.9705C49.2943 14.9812 46.1833 14.983 43.0705 14.9705C42.2136 14.9669 41.7009 14.4364 41.7198 13.5415C41.7404 12.543 41.6957 11.5106 41.928 10.5586C42.4666 8.34904 43.8724 6.88436 45.963 6.17703C46.3708 6.03949 46.579 5.88588 46.6961 5.42147C47.4996 2.20632 50.1891 0.0253743 53.3844 0.0128709C54.8178 0.00751232 56.2872 -0.0675079 57.6776 0.216497C60.9039 0.877389 63.0909 3.82461 63.0978 7.31484C63.115 14.6918 63.1029 22.067 63.1029 29.444C63.1029 30.8926 63.096 32.3412 63.1115 33.7898C63.1133 33.9845 63.1718 34.3042 63.287 34.3525C64.7169 34.9544 65.4809 36.1262 65.9369 37.5801V39.052C65.524 40.6488 64.6705 41.8581 63.1029 42.4439C63.1029 44.1372 63.0995 45.8073 63.1029 47.4774C63.1132 51.257 62.0447 54.6687 59.856 57.6891C59.603 58.0374 59.6099 58.2785 59.8044 58.6322C60.4651 59.829 61.1276 61.0275 61.7315 62.2564C62.8379 64.5052 61.8571 67.2238 59.6323 68.1562C59.3363 68.2795 59.0266 68.3688 58.7237 68.4724H57.4349C55.7831 68.0651 54.7283 66.963 54.0262 65.4037C53.6924 64.6624 53.2674 63.9676 52.8699 63.2245C52.6755 63.2853 52.5137 63.3281 52.3554 63.3853C50.6175 64.0105 48.8297 64.3159 46.992 64.3159C37.64 64.3159 28.2863 64.3212 18.9343 64.307C18.0585 64.307 17.174 64.2319 16.3119 64.0765C15.2227 63.8801 14.1525 63.5657 13.022 63.2888C12.6572 63.9676 12.2304 64.6642 11.8983 65.4037C11.198 66.9648 10.1398 68.0651 8.48965 68.4724H7.20084L7.20944 68.4688ZM5.40959 42.6797C5.40959 44.4677 5.39239 46.1807 5.41303 47.8936C5.50079 55.3956 11.4355 61.5919 18.659 61.6259C28.2089 61.6688 37.7588 61.6652 47.3104 61.6259C53.1883 61.6027 58.4244 57.3658 60.0229 51.4892C60.8024 48.6224 60.4668 45.693 60.5133 42.7851C60.5133 42.7512 60.4651 42.7172 60.4152 42.6529C58.9595 42.6529 57.4797 42.6529 55.9999 42.6529C54.1106 42.6529 52.2229 42.6618 50.3336 42.6476C49.3976 42.6404 48.8383 42.0224 48.9261 41.1436C48.9984 40.4095 49.5283 39.979 50.3921 39.979C54.1054 39.9754 57.817 39.9736 61.5302 39.9808C62.2219 39.9808 62.8053 39.7914 63.1614 39.1323C63.7757 37.9963 62.9704 36.7692 61.6008 36.7692C52.672 36.7656 43.7451 36.7674 34.8164 36.7692C34.6322 36.7692 34.4481 36.7942 34.2915 36.8049V39.9754C34.498 39.9754 34.6649 39.9754 34.8318 39.9754C36.0759 39.9754 37.3217 39.9647 38.5657 39.9826C39.3074 39.9933 39.8528 40.547 39.8786 41.2615C39.9044 41.9688 39.3814 42.5672 38.6518 42.6386C38.3747 42.6654 38.0943 42.6511 37.8155 42.6511C36.6437 42.6511 35.4719 42.6511 34.2571 42.6511V43.4603C34.2571 46.3575 34.2571 49.2529 34.2571 52.1501C34.2571 53.4237 33.8166 53.8827 32.5898 53.8827C27.1816 53.8845 21.7734 53.8845 16.3653 53.8827C15.1057 53.8827 14.6807 53.4308 14.6807 52.0983C14.6807 49.2011 14.6807 46.3057 14.6807 43.4085V42.6761H5.40959V42.6797ZM17.2566 51.1588H31.6829C31.6829 46.6076 31.6847 42.1081 31.6829 37.6105C31.6829 36.2958 31.1031 35.701 29.8315 35.6993C26.292 35.6975 22.7525 35.6993 19.213 35.6993C17.8003 35.6993 17.26 36.253 17.26 37.7052C17.26 41.9599 17.26 46.2128 17.26 50.4675V51.1588H17.2566ZM14.6566 36.7763C11.0655 36.7763 7.5312 36.7656 3.99688 36.7871C3.36538 36.7906 2.91973 37.1889 2.68743 37.8052C2.28135 38.8805 3.02987 39.9665 4.23092 39.9718C7.63962 39.9897 11.0483 39.9754 14.457 39.9718C14.5155 39.9718 14.5723 39.9343 14.6566 39.9058V36.7763ZM44.3198 12.2519H51.194C51.1699 10.0977 49.6264 8.51337 47.6476 8.5616C45.7531 8.60804 44.2578 10.246 44.3181 12.2519H44.3198ZM8.22465 60.1809C7.62069 61.3437 6.97715 62.4922 6.42136 63.6836C6.09959 64.373 6.44201 65.1858 7.08383 65.5734C7.7463 65.9717 8.60493 65.8467 9.02823 65.1625C9.64768 64.1605 10.1725 63.0977 10.7317 62.0742C9.87307 61.4276 9.07984 60.8275 8.22293 60.1809H8.22465ZM55.2118 62.0742C55.7641 63.0923 56.2838 64.1337 56.8809 65.125C57.2853 65.7949 58.0957 65.9645 58.7599 65.6305C59.4172 65.3001 59.8525 64.4641 59.5531 63.7943C59.0008 62.5583 58.3383 61.3758 57.724 60.1755C56.8499 60.8364 56.0567 61.4348 55.2118 62.0742Z" fill="white"/>
</svg>
