<svg width="73" height="76" viewBox="0 0 73 76" fill="none" xmlns="http://www.w3.org/2000/svg">
<path d="M33.2102 75.8075C33.1017 75.762 32.9969 75.7106 32.8864 75.671C32.3168 75.4634 32.1434 75.0105 32.2101 74.4409C32.2787 73.8753 32.614 73.557 33.1664 73.5372C33.7837 73.5154 34.4028 73.5233 35.0201 73.5214C38.6798 73.5214 42.3413 73.5214 46.001 73.5214C46.2811 73.5214 46.5592 73.5214 46.8659 73.5214V64.1752H44.3645C42.0994 64.1752 41.6327 63.9814 41.6498 63.048C41.6688 62.1323 42.1203 61.9524 44.4065 61.9524C45.2085 61.9524 46.0105 61.9524 46.8526 61.9524V59.9629H46.0867C41.9032 59.9629 37.7196 59.9629 33.536 59.9629C32.311 59.9629 31.9796 59.601 32.0119 58.3136C32.111 54.2714 34.5781 51.1428 38.6664 50.0729C40.0362 49.715 41.4764 49.5034 42.8862 49.4875C48.7558 49.4223 54.6273 49.4559 60.4987 49.4559C60.7807 49.4559 61.0607 49.4559 61.3751 49.4559V46.4183H23.6429C23.6296 46.7189 23.6029 47.0274 23.6029 47.3359C23.601 56.1699 23.6029 65.0058 23.601 73.8397C23.601 74.1107 23.6124 74.3836 23.5838 74.6525C23.5114 75.3309 23.1285 75.6849 22.5037 75.675C21.8712 75.6651 21.492 75.3091 21.4787 74.611C21.452 73.1812 21.4673 71.7494 21.4654 70.3176C21.4654 70.0526 21.4654 69.7876 21.4654 69.4831H2.14015C2.14015 69.7639 2.14015 70.0269 2.14015 70.288C2.14015 71.7198 2.15158 73.1515 2.13063 74.5813C2.1211 75.2854 1.75914 75.6493 1.13046 75.673C0.478915 75.6967 0.0731304 75.315 0.0102624 74.609C-0.00688339 74.4133 0.00263461 74.2135 0.00263461 74.0177C0.00263461 62.2213 0.00263461 50.4249 0.00263461 38.6305C0.00263461 37.1552 0.276971 36.8783 1.72103 36.8764C2.76692 36.8764 3.81282 36.8744 4.85872 36.8704C4.90253 36.8704 4.94444 36.8447 4.8549 36.8744C4.31005 35.6305 3.53087 34.4261 3.26225 33.109C2.87171 31.1987 2.81836 29.2092 2.685 27.2474C2.63928 26.5553 3.10793 26.1894 3.86425 26.1835C5.59979 26.1716 7.33533 26.1795 9.06896 26.1795C9.32424 26.1795 9.57952 26.1795 9.88053 26.1795V24.2296C9.06706 24.1485 8.24596 24.1782 7.48774 23.9705C5.26069 23.3594 3.61278 22.0087 2.95552 19.6277C2.7974 19.0522 2.82408 18.4075 2.84504 17.7984C2.8698 17.1082 3.37655 16.7879 3.92713 16.5664C5.6779 15.8643 7.36962 16.0206 9.00229 16.9659C9.269 17.1201 9.52618 17.2961 9.91673 17.5453C9.85957 16.5664 10.132 15.7516 9.309 14.9388C6.81524 12.4787 7.03432 8.1062 9.65953 5.78053C10.5283 5.01125 11.1627 4.97565 12.0981 5.64408C14.9519 7.68497 15.2986 12.3304 12.7953 14.9606C11.9933 15.805 11.9133 16.1056 12.1609 17.4781C12.3933 17.3317 12.6048 17.1893 12.8258 17.0608C14.4337 16.1214 16.114 15.7892 17.8857 16.4912C19.0269 16.9441 19.2821 17.4346 19.145 18.722C18.8192 21.8051 16.1635 24.2039 13.1078 24.1742C12.801 24.1703 12.4943 24.1742 12.1266 24.1742V26.1835C13.4183 26.1835 14.6966 26.1835 15.973 26.1835C16.5903 26.1835 17.2094 26.1756 17.8266 26.1914C18.4439 26.2072 18.8611 26.5691 18.8668 27.1841C18.8916 30.0319 18.7887 32.8697 17.3656 35.4347C17.1065 35.9014 16.7712 36.3207 16.4321 36.819H40.522V32.9152C40.2534 32.9034 40.0038 32.8796 39.7523 32.8796C35.3306 32.8777 30.9108 32.8796 26.4891 32.8777C24.5288 32.8777 23.3724 31.695 23.3705 29.6779C23.3667 24.1248 23.3705 18.5737 23.3647 13.0205C23.3647 12.4411 23.439 11.923 24.0468 11.7035C24.866 11.4068 25.5023 11.9388 25.5042 12.9355C25.5099 16.2678 25.5061 19.598 25.5061 22.9303C25.5061 23.397 25.5061 23.8637 25.5061 24.3878H54.572C54.7682 23.4148 54.934 22.4003 55.1797 21.4095C56.0084 18.0634 57.462 15.0891 60.1025 12.8683C60.5978 12.453 61.1427 12.0832 61.7066 11.7766C62.7506 11.2091 63.4859 11.6876 63.4897 12.9256C63.5012 16.4537 63.4935 19.9837 63.4935 23.5117C63.4935 23.8005 63.4935 24.0912 63.4935 24.4115H66.7189C66.7303 24.1544 66.7493 23.8974 66.7493 23.6383C66.7493 16.9006 66.7513 10.1649 66.7493 3.42719C66.7493 2.35533 66.6236 2.22283 65.6101 2.22283C52.6326 2.22283 39.6552 2.22283 26.6758 2.22283C25.6604 2.22283 25.508 2.37708 25.5061 3.40345C25.5042 4.48916 25.5099 5.57486 25.5042 6.66057C25.4985 7.53269 25.1098 8.00336 24.4202 7.99347C23.7534 7.98358 23.3743 7.53071 23.3686 6.70012C23.3609 5.4661 23.3533 4.23207 23.3686 2.99805C23.3914 1.25973 24.5859 0.00593281 26.2586 0.00593281C39.497 -0.0019776 52.7374 -0.0019776 65.9759 0.00593281C67.6695 0.00593281 68.8754 1.22611 68.8773 2.97234C68.8907 11.9546 68.8907 20.9369 68.8773 29.9211C68.8754 31.6674 67.6657 32.8599 65.9683 32.8777C65.1853 32.8856 64.4023 32.8777 63.5545 32.8777V36.8823H64.307C66.6846 36.8823 69.0602 36.9041 71.4378 36.8704C72.1579 36.8605 72.6818 37.0721 72.9923 37.7604V57.1567C72.6075 57.657 72.1903 58.0624 71.4987 57.7974C70.8072 57.5344 70.8281 56.9352 70.83 56.3281C70.8357 53.2964 70.8319 50.2628 70.8319 47.2311V46.4163H63.5412C63.5412 46.7565 63.5507 47.0492 63.5412 47.3418C63.4612 49.6299 63.5202 51.9338 63.2649 54.2002C62.8839 57.5878 60.9865 59.5377 57.7364 59.8205C55.1416 60.046 52.5183 59.9332 49.9084 59.9688C49.6321 59.9728 49.3559 59.9688 49.0834 59.9688V73.5273C49.4187 73.5273 49.7007 73.5273 49.9827 73.5273C54.0195 73.5273 58.0564 73.5273 62.0933 73.5273C62.3543 73.5273 62.6725 73.4502 62.863 73.5747C63.1887 73.7903 63.6097 74.1048 63.6669 74.437C63.726 74.7811 63.4288 75.2162 63.2249 75.5721C63.1487 75.7066 62.8973 75.7363 62.7258 75.8114H33.2045L33.2102 75.8075ZM2.18015 44.065H59.5843C58.6489 42.6628 57.6449 41.237 56.7324 39.7478C56.4409 39.2732 56.1951 39.0755 55.6446 39.0774C38.0797 39.0952 20.5147 39.0913 2.94981 39.0913C2.69834 39.0913 2.44877 39.0913 2.18015 39.0913V44.065ZM21.4025 67.1831V57.9537H2.18015V67.1831H21.4025ZM2.19539 46.4025V55.6438H21.412V46.4025H2.19539ZM61.4703 51.7875C61.2551 51.7163 61.2112 51.6886 61.1674 51.6886C54.8521 51.6926 48.5348 51.6688 42.2194 51.7262C40.3562 51.742 38.535 52.1534 36.9252 53.2213C35.3554 54.2595 34.4428 55.7447 34.1933 57.7084C34.4257 57.7223 34.6124 57.7421 34.7991 57.7421C41.9946 57.7421 49.1901 57.746 56.3838 57.7361C56.9267 57.7361 57.4754 57.6728 58.0107 57.572C59.5214 57.2872 60.5749 56.4072 60.9541 54.835C61.1941 53.8402 61.3027 52.8119 61.4722 51.7895L61.4703 51.7875ZM54.4025 26.7154H25.5099C25.5099 27.6568 25.5099 28.5427 25.5099 29.4287C25.5099 30.5184 25.6451 30.6568 26.7063 30.6568C35.7116 30.6568 44.717 30.6568 53.7223 30.6568C53.951 30.6568 54.1796 30.6331 54.4025 30.6212V26.7154ZM61.3236 14.6817C60.9445 15.0575 60.6816 15.2987 60.4416 15.5618C59.2871 16.8373 58.4508 18.3225 57.8754 19.958C56.3075 24.4096 56.2085 28.9798 56.9724 33.5916C57.4544 36.5006 58.4794 39.1842 60.3902 41.4367C60.6473 41.7413 60.8836 42.0656 61.1293 42.38L61.3217 42.2119V14.6817H61.3236ZM16.9198 28.4538H4.81489C4.87585 30.289 5.02445 32.0471 5.69695 33.7102C6.28562 35.1657 7.29722 36.2079 8.80224 36.4828C9.88433 36.6786 11.0255 36.7162 12.1209 36.6035C14.0527 36.4037 15.3881 35.227 15.9387 33.3167C16.3826 31.7761 16.5864 30.1604 16.9198 28.4538ZM70.8015 39.1467H63.5355V44.0827H70.8015V39.1467ZM49.5711 32.9113H42.7433V36.8131H49.5711V32.9113ZM55.4541 36.8408C55.2045 35.5929 54.9759 34.3925 54.7149 33.202C54.6863 33.0715 54.4749 32.8955 54.3434 32.8895C53.4995 32.8618 52.6536 32.8757 51.7677 32.8757V36.8408H55.4522H55.4541ZM63.5564 26.6897V30.6548C64.4175 30.6548 65.2234 30.7003 66.0197 30.6271C66.2712 30.6034 66.6884 30.2791 66.7017 30.0695C66.7703 28.9541 66.7341 27.8328 66.7341 26.6878H63.5564V26.6897ZM11.0217 13.596C12.8182 12.0673 12.7991 8.83 11.0045 7.6375C9.28232 9.15432 9.26709 11.9131 11.0217 13.596ZM12.1266 21.7299C14.2165 22.5368 16.9846 20.6838 16.937 18.5657C14.8985 17.7747 12.5553 19.2994 12.1266 21.7299ZM4.99016 18.5875C5.33307 20.7233 7.38867 22.252 9.38901 21.9158C9.73955 21.8565 9.88625 21.7339 9.81195 21.3383C9.43665 19.3192 6.90096 17.8479 4.99016 18.5875Z" fill="white"/>
</svg>
