<svg width="68" height="67" viewBox="0 0 68 67" fill="none" xmlns="http://www.w3.org/2000/svg">
<path d="M65.4525 49.8687H57.6972V62.2581H65.4525C65.4525 61.8236 65.4525 61.3909 65.4525 60.9582C65.4525 60.4325 65.6064 59.998 66.2182 59.9962C66.8175 59.9962 67 60.3985 66.9982 60.9403C66.9928 62.6354 67.0018 64.3322 66.9928 66.0273C66.9893 66.7032 66.7334 66.9481 66.0679 66.9714C65.889 66.9785 65.7101 66.9714 65.533 66.9714C49.8864 66.9714 34.2398 66.9714 18.5931 66.9714C18.3248 66.9714 18.0045 67.0519 17.8042 66.9338C17.5376 66.7765 17.2031 66.4636 17.1977 66.2115C17.1941 65.9629 17.5197 65.6304 17.7845 65.4802C18.0081 65.3532 18.3498 65.4265 18.6396 65.4265C33.9303 65.4265 49.2191 65.4265 64.5097 65.4265C64.7942 65.4265 65.0786 65.4265 65.4078 65.4265V63.8995H1.59042V65.4265H2.41516C5.83036 65.4265 9.24557 65.4265 12.6608 65.4265C12.9059 65.4265 13.21 65.3604 13.3818 65.4784C13.6394 65.6554 13.9685 65.9737 13.9596 66.2222C13.9507 66.4743 13.5893 66.7372 13.3424 66.9464C13.2494 67.025 13.0401 66.9714 12.8844 66.9714C8.97901 66.9714 5.07183 66.9714 1.16643 66.9714C0.187846 66.9714 0.00357801 66.7836 0.00357801 65.7931C0.00357801 57.7612 0.00357801 49.7292 0.00357801 41.6955C0.00357801 40.6906 0.209314 40.4832 1.21652 40.4814C2.70676 40.4779 4.19521 40.4814 5.86078 40.4814C4.40095 38.8543 4.70329 36.9822 4.68182 35.1745C4.67467 34.5666 4.9788 34.268 5.58527 34.2733C5.67472 34.2733 5.76596 34.259 5.85362 34.2733C7.56928 34.5719 8.92892 34.0159 9.93076 32.5854C9.99338 32.496 10.0846 32.4245 10.1651 32.3476C10.6482 31.8827 11.1133 31.8094 11.4425 32.1813C11.87 32.6641 11.6643 33.0879 11.2528 33.4544C11.0095 33.6708 10.7412 33.8585 10.4854 34.0606L10.6303 34.2733C11.4246 34.2733 12.2171 34.2662 13.0114 34.2751C13.7718 34.2841 14.0133 34.5147 14.0222 35.2782C14.0329 36.0578 14.117 36.8589 13.9793 37.6152C13.804 38.5754 13.439 39.4998 13.1545 40.4385H22.0226C21.9296 39.4283 21.8384 38.4413 21.7418 37.4114C21.1747 37.3005 20.248 37.5741 20.2819 36.5585C20.3124 35.6519 21.1657 35.8862 21.7167 35.7789C21.7579 35.7199 21.8008 35.6859 21.8044 35.6483C21.8783 34.7317 22.3852 34.2727 23.325 34.2715C25.513 34.2715 27.6992 34.2715 29.8871 34.2715C30.9856 34.2715 31.109 34.3896 31.1734 35.4785C31.1788 35.5643 31.1984 35.6483 31.2181 35.7699C31.8121 35.9076 32.7459 35.6251 32.6851 36.6675C32.6332 37.5473 31.8425 37.3255 31.2611 37.3988C31.1573 38.4073 31.0553 39.4104 30.9498 40.4439H35.8355C35.8355 39.4944 35.8266 38.5682 35.8391 37.6402C35.8499 36.8553 36.1093 36.5942 36.8911 36.5924C40.351 36.5853 43.8109 36.5871 47.2709 36.5924C47.9382 36.5924 48.3192 36.891 48.2852 37.3881C48.2423 38.0229 47.8076 38.1766 47.253 38.1695C46.5892 38.1606 45.9237 38.1677 45.1795 38.1677C45.1795 38.6022 45.1795 38.9741 45.1795 39.3478C45.1795 39.7001 45.1795 40.0505 45.1795 40.4439H63.0588C63.0749 40.283 63.1053 40.1131 63.1053 39.9432C63.1089 37.8906 63.1 35.8379 63.1125 33.7852C63.1161 33.2327 62.9926 32.791 62.3683 32.7177C61.8673 32.6587 61.565 33.0753 61.5507 33.7834C61.5417 34.2072 61.5578 34.6309 61.5346 35.0547C61.5095 35.5285 61.2412 35.8075 60.7635 35.7985C60.2894 35.7896 60.0229 35.5107 60.0121 35.0333C59.9996 34.4539 59.9871 33.871 60.0193 33.2935C60.0819 32.1813 60.9675 31.2873 62.0749 31.18C63.2413 31.0674 64.2843 31.754 64.5687 32.8554C64.651 33.1755 64.6761 33.517 64.6779 33.8478C64.6868 35.7896 64.6832 37.7296 64.6832 39.6715V40.485C65.1537 40.485 65.5706 40.4743 65.9856 40.4868C66.7406 40.5083 66.9982 40.7568 66.9982 41.4971C67.0018 46.8076 66.9982 52.1181 67.0036 57.4286C67.0036 57.9668 66.839 58.3816 66.2397 58.3905C65.6332 58.3995 65.4579 57.9757 65.4579 57.4447C65.4579 55.1917 65.4579 52.937 65.4579 50.684C65.4579 50.423 65.4579 50.1619 65.4579 49.8705L65.4525 49.8687ZM46.7181 42.1086H20.2802V62.2581H23.359C23.359 61.9631 23.359 61.702 23.359 61.4392C23.359 57.4447 23.359 53.452 23.359 49.4575C23.359 48.5384 23.5737 48.2934 24.4217 48.2934C30.4703 48.2881 36.5189 48.2881 42.5676 48.2934C43.3959 48.2934 43.632 48.542 43.6356 49.3877C43.6428 50.9934 43.6374 52.6008 43.6356 54.2065C43.6356 54.3174 43.6392 54.43 43.6213 54.5409C43.5533 54.995 43.2993 55.299 42.8288 55.2865C42.3654 55.274 42.1006 54.9789 42.0738 54.5105C42.0559 54.1994 42.0684 53.8864 42.0666 53.5735C42.0666 52.3523 42.0666 51.1311 42.0666 49.8848H24.9584V59.1505H42.0738C42.0738 58.598 41.9861 58.0651 42.1078 57.5859C42.1776 57.307 42.564 56.9601 42.8413 56.9243C43.0667 56.8957 43.403 57.248 43.5801 57.5072C43.6982 57.6789 43.632 57.9829 43.6338 58.226C43.6374 59.5581 43.6338 60.8902 43.6338 62.2581H46.7127V42.1086H46.7181ZM18.6522 62.2563V53.0157H1.58148V62.2563H18.6522ZM18.6325 51.3742V42.0996H1.58864V51.3742H18.6325ZM65.4006 48.2612V42.0943H48.3693V48.2612H65.4006ZM56.0495 62.2974V49.8794H48.3622V62.2974C48.7647 62.2974 49.1171 62.2974 49.4695 62.2974C51.6521 62.2974 53.8329 62.2974 56.0495 62.2974ZM29.6009 35.8718H23.3877C23.3877 36.9858 23.3376 38.0515 23.4038 39.11C23.4538 39.9271 24.0585 40.4475 24.8707 40.4689C25.9388 40.4975 27.0086 40.4975 28.0766 40.4689C28.9407 40.4475 29.5561 39.8646 29.5919 39.0009C29.6331 37.98 29.6009 36.9572 29.6009 35.8701V35.8718ZM6.26867 35.8665C6.26867 36.5495 6.20069 37.195 6.28119 37.8244C6.4762 39.3389 7.68914 40.4171 9.17401 40.4779C10.7537 40.5422 12.0686 39.5695 12.3656 38.0193C12.4962 37.3327 12.4533 36.6139 12.4926 35.8683H6.26867V35.8665ZM42.0505 60.8187H24.9691V62.2438H42.0505V60.8187ZM37.3902 38.1981C37.3902 38.6666 37.383 39.0832 37.3902 39.5016C37.4045 40.215 37.6496 40.4707 38.3527 40.4779C39.444 40.4886 40.5353 40.4779 41.6265 40.4814C43.5229 40.4886 43.734 40.7353 43.6177 38.3394C43.6159 38.3 43.5766 38.2643 43.539 38.1963H37.3902V38.1981Z" fill="white"/>
<path d="M33.483 27.2535C29.4899 27.2535 25.4969 27.2535 21.5038 27.2535C20.4358 27.2535 20.2479 27.0639 20.2462 26.0161C20.2462 25.258 20.2712 24.4981 20.2372 23.7417C20.214 23.2232 20.4072 22.862 20.79 22.5276C22.7848 20.7771 24.7562 18.9998 26.7546 17.2547C27.1231 16.9328 27.2716 16.6038 27.2698 16.1103C27.2519 11.1825 27.2591 6.25281 27.2591 1.32494C27.2591 0.157348 27.4129 0.00178805 28.5561 0.00178805C31.9033 0.00178805 35.2488 0.00178805 38.596 0.00178805C39.5263 0.00178805 39.7338 0.207414 39.7356 1.14793C39.7392 6.12049 39.7445 11.0931 39.7266 16.0674C39.7248 16.5806 39.8733 16.931 40.2615 17.269C42.1955 18.9533 44.0936 20.6788 46.0311 22.3596C46.5445 22.8048 46.82 23.2715 46.7628 23.9706C46.7073 24.6804 46.7538 25.3975 46.7503 26.1109C46.7467 27.0228 46.5248 27.2499 45.5981 27.2517C41.5604 27.2552 37.5226 27.2535 33.4848 27.2535H33.483ZM43.7179 22.5849L43.7841 22.415C43.6607 22.322 43.5318 22.238 43.4173 22.1361C41.8663 20.7593 40.3295 19.3646 38.757 18.011C38.3241 17.6391 38.1666 17.2422 38.1684 16.6825C38.1845 11.9102 38.1773 7.13611 38.1773 2.3638V1.59673H28.8155V2.37274C28.8155 6.49956 28.701 10.63 28.8656 14.7496C28.9461 16.7469 28.4487 18.1666 26.7939 19.3288C25.513 20.2282 24.4217 21.3958 23.1336 22.5455C23.5039 22.5652 23.7168 22.5849 23.9315 22.5849C25.225 22.5884 26.5202 22.5795 27.8136 22.5902C28.4863 22.5956 28.8548 22.8978 28.8048 23.3984C28.7475 23.9938 28.3378 24.1387 27.8065 24.1369C26.1552 24.1279 24.504 24.1333 22.8527 24.1333C22.5254 24.1333 22.1998 24.1333 21.8688 24.1333V25.6639H45.1294V24.1333C44.8414 24.1333 44.6017 24.1333 44.3602 24.1333C40.3886 24.1333 36.417 24.1333 32.4454 24.1333C32.2218 24.1333 31.9337 24.2048 31.7906 24.094C31.5401 23.9009 31.2432 23.6005 31.2253 23.3287C31.211 23.1052 31.5384 22.7994 31.7852 22.6421C31.9659 22.5276 32.2611 22.5884 32.5062 22.5884C36.0091 22.5866 39.5119 22.5884 43.0166 22.5884C43.251 22.5884 43.4835 22.5884 43.7179 22.5884V22.5849Z" fill="white"/>
<path d="M11.6876 0C15.169 0 18.6504 0 22.1318 0C23.1837 0 23.3572 0.164501 23.3572 1.18369C23.359 6.62651 23.359 12.0693 23.3572 17.5122C23.3572 18.5009 23.1765 18.6833 22.1801 18.6833C15.1725 18.6851 8.1668 18.6869 1.15927 18.6833C0.180689 18.6833 0.001789 18.492 0.001789 17.4943C0 12.0515 0 6.60863 0 1.16581C0 0.185957 0.187845 0 1.17716 0C4.68004 0 8.18469 0 11.6876 0ZM21.7919 17.0991V1.59673H12.5034V17.0991H21.7919ZM10.8628 1.60746H1.59758V17.083H10.8628V1.60746Z" fill="white"/>
<path d="M55.2999 0C58.8028 0 62.3074 0 65.8103 0C66.8086 0 66.9964 0.182381 66.9964 1.15508C66.9964 6.61936 66.9964 12.0854 66.9964 17.5497C66.9964 18.4795 66.7978 18.6798 65.8461 18.6815C58.8171 18.6851 51.7881 18.6851 44.7573 18.6815C43.8413 18.6815 43.641 18.4813 43.641 17.5873C43.6374 12.0783 43.6374 6.56751 43.641 1.05853C43.641 0.207414 43.8574 0.00178805 44.7215 0.00178805C48.2477 -0.00178805 51.7738 0.00178805 55.2981 0.00178805L55.2999 0ZM45.2153 1.59494V17.083H54.4877V1.59494H45.2153ZM56.1479 1.59136V17.0938H65.4096V1.59136H56.1479Z" fill="white"/>
<path d="M59.9889 56.0589C59.9889 56.3486 60.0873 56.6919 59.9638 56.9136C59.8064 57.1979 59.4683 57.5609 59.2107 57.5591C58.9531 57.5591 58.5344 57.1854 58.4718 56.9136C58.3537 56.3826 58.3537 55.7907 58.4682 55.2579C58.5291 54.9736 58.8994 54.6231 59.1892 54.5534C59.6329 54.4497 59.9263 54.8019 59.9853 55.2561C60.0193 55.5189 59.9907 55.7907 59.9907 56.0571H59.9871L59.9889 56.0589Z" fill="white"/>
<path d="M33.4937 51.41C34.9643 51.41 36.4366 51.4189 37.9072 51.4046C38.469 51.3993 38.9305 51.553 38.9359 52.1753C38.9413 52.8011 38.469 52.9602 37.9144 52.9584C34.9715 52.9531 32.0303 52.9531 29.0874 52.9584C28.5364 52.9584 28.0963 52.81 28.0498 52.1806C28.014 51.6943 28.4058 51.4136 29.0803 51.41C30.5508 51.4046 32.0232 51.41 33.4937 51.41Z" fill="white"/>
<path d="M39.7606 42.8488C41.0487 42.8613 42.0827 43.9163 42.0666 45.2019C42.0505 46.475 40.9718 47.5299 39.7016 47.5138C38.4332 47.4977 37.3705 46.407 37.3938 45.1429C37.417 43.8537 38.4672 42.8363 39.7606 42.8488ZM38.9287 45.3092C39.1148 45.4701 39.3509 45.8206 39.6586 45.9046C40.0987 46.0244 40.4279 45.7258 40.4762 45.2484C40.5245 44.7728 40.2812 44.4688 39.8071 44.4205C39.3366 44.374 39.054 44.619 38.9287 45.3092Z" fill="white"/>
<path d="M24.9298 45.1733C24.9351 43.8823 25.9728 42.8488 27.2644 42.8506C28.5543 42.8506 29.6044 43.893 29.6027 45.1733C29.6027 46.4428 28.5364 47.5085 27.2626 47.5156C25.9978 47.5228 24.9244 46.4446 24.9298 45.1733ZM27.2233 44.4026C26.7868 44.4688 26.4916 44.6977 26.513 45.1894C26.5327 45.665 26.8136 45.9403 27.2841 45.9278C27.7528 45.9153 28.023 45.631 28.0158 45.1518C28.0087 44.6637 27.7045 44.4455 27.2233 44.4026Z" fill="white"/>
<path d="M35.8177 45.1518C35.8284 46.4464 34.789 47.5031 33.4991 47.5121C32.2504 47.521 31.1949 46.4821 31.1752 45.2251C31.1537 43.9073 32.1609 42.8631 33.4615 42.8488C34.7782 42.8345 35.8087 43.8412 35.8177 45.1518ZM33.6458 44.2989H33.3399C33.1342 44.5868 32.8032 44.8514 32.7513 45.1643C32.6815 45.5935 32.9964 45.9171 33.4669 45.9296C33.9714 45.9439 34.3077 45.6239 34.2415 45.159C34.1968 44.8496 33.8551 44.585 33.6458 44.2989Z" fill="white"/>
<path d="M10.0989 58.4013C9.58727 58.4013 9.07562 58.412 8.56575 58.3959C8.09345 58.3816 7.809 58.108 7.80006 57.6449C7.79111 57.1765 8.07914 56.8868 8.54607 56.8761C9.59085 56.8546 10.6356 56.8546 11.6786 56.8725C12.1438 56.8796 12.4479 57.1586 12.4461 57.6235C12.4461 58.117 12.1366 58.3905 11.6321 58.3995C11.1204 58.4066 10.6106 58.3995 10.0989 58.3995V58.4013Z" fill="white"/>
<path d="M10.0971 45.9457C10.6088 45.9457 11.1222 45.9296 11.6339 45.9493C12.1241 45.969 12.4461 46.2336 12.4461 46.736C12.4461 47.2081 12.1312 47.4888 11.6804 47.5013C10.6356 47.5299 9.58727 47.5317 8.54249 47.4978C8.09345 47.4834 7.78932 47.1938 7.79827 46.7164C7.80721 46.2443 8.10419 45.9797 8.56396 45.9529C9.07383 45.9243 9.58727 45.9457 10.0989 45.9457H10.0971Z" fill="white"/>
<path d="M56.885 45.9404C56.6184 45.9404 56.3501 45.9564 56.0835 45.935C55.6148 45.8992 55.3393 45.6364 55.3357 45.1643C55.3321 44.7191 55.6005 44.4438 56.0316 44.4151C56.5862 44.3776 57.1462 44.3758 57.699 44.4116C58.1605 44.442 58.4396 44.7298 58.411 45.2108C58.3824 45.6865 58.0854 45.9207 57.6185 45.9386C57.3734 45.9475 57.1283 45.9386 56.8832 45.9386L56.885 45.9404Z" fill="white"/>
<path d="M55.3214 56.0661C55.3214 56.2896 55.3267 56.5113 55.3214 56.7348C55.3071 57.2498 55.087 57.6038 54.5288 57.6056C54.0011 57.6056 53.7793 57.2605 53.756 56.7831C53.7327 56.3164 53.7381 55.8461 53.756 55.3795C53.7721 54.8967 54.01 54.5427 54.5163 54.5337C55.0566 54.5248 55.3053 54.8752 55.3214 55.3973C55.3285 55.6209 55.3214 55.8426 55.3214 56.0661Z" fill="white"/>
<path d="M14.7736 9.38726C14.7736 9.65368 14.7951 9.92368 14.7682 10.1865C14.7235 10.6246 14.4605 10.8749 14.0168 10.8731C13.575 10.8731 13.2923 10.6264 13.2673 10.1865C13.2351 9.63222 13.1796 9.05826 13.2905 8.52721C13.3496 8.2447 13.7074 7.88709 13.99 7.82093C14.4283 7.71901 14.7325 8.04801 14.77 8.52006C14.7933 8.80793 14.7736 9.0976 14.7736 9.38726Z" fill="white"/>
<path d="M8.58185 9.28355C8.58185 9.01713 8.48882 8.69528 8.60511 8.49681C8.77149 8.21251 9.07204 7.86742 9.35112 7.83523C9.57117 7.80841 10.0095 8.18211 10.056 8.43244C10.1633 9.01177 10.124 9.62686 10.0846 10.2241C10.056 10.6657 9.74649 10.8928 9.3064 10.8731C8.86452 10.8517 8.61584 10.5888 8.58364 10.1525C8.56217 9.86467 8.58006 9.57501 8.58006 9.28534H8.58364L8.58185 9.28355Z" fill="white"/>
<path d="M52.2264 9.34077C52.2264 9.05111 52.1298 8.70959 52.2514 8.48787C52.4071 8.20357 52.7237 7.86384 53.001 7.83523C53.2211 7.81199 53.6522 8.18927 53.6987 8.44317C53.8043 9.02429 53.8043 9.6501 53.6987 10.2312C53.654 10.4815 53.2712 10.7855 52.9921 10.8517C52.5753 10.95 52.2801 10.6496 52.2318 10.208C52.2013 9.92189 52.2264 9.63043 52.2264 9.34256V9.34077Z" fill="white"/>
<path d="M58.4146 9.33898C58.4146 9.62865 58.4432 9.9201 58.4074 10.2044C58.3537 10.6389 58.0621 10.9464 57.6453 10.8499C57.3662 10.7855 56.9887 10.4833 56.9386 10.2312C56.8295 9.67514 56.8206 9.0672 56.9315 8.51112C56.9869 8.23397 57.3626 7.88172 57.6471 7.82093C58.0854 7.72974 58.3824 8.0641 58.4164 8.53794C58.4342 8.80436 58.4199 9.07078 58.4199 9.33898H58.4146Z" fill="white"/>
</svg>
