<svg width="75" height="61" viewBox="0 0 75 61" fill="none" xmlns="http://www.w3.org/2000/svg">
<path d="M0 7.80344C0.31188 7.41589 0.594406 6.99765 0.939308 6.64656C2.87846 4.66663 4.83046 2.70204 6.78063 0.735543C7.75112 -0.242911 8.28866 -0.240993 9.26282 0.745136C11.2644 2.76727 13.2494 4.80668 15.2674 6.80963C15.8068 7.3449 16.0361 7.92814 16.0269 8.69939C15.9976 11.0477 16.0471 13.396 15.9994 15.7443C15.9847 16.5021 16.2159 16.7074 16.9075 16.6575C17.779 16.5961 18.6559 16.6421 19.6044 16.6421C19.6191 16.316 19.6429 16.0474 19.6429 15.7769C19.6466 13.4286 19.6613 11.0803 19.6356 8.73201C19.6264 7.96267 19.8539 7.36985 20.3914 6.83457C22.4425 4.79325 24.466 2.72123 26.5043 0.664557C27.3739 -0.212214 27.9683 -0.21797 28.8287 0.651128C30.8651 2.7078 32.8868 4.78366 34.9397 6.82114C35.4791 7.35642 35.7065 7.95308 35.701 8.71474C35.6827 11.0381 35.6937 13.3614 35.6937 15.6829C35.6937 15.9611 35.6937 16.2373 35.6937 16.5769H39.3023C39.3023 16.2757 39.3023 16.0013 39.3023 15.727C39.3023 13.3787 39.3152 11.0304 39.295 8.68212C39.2895 7.94349 39.5133 7.36984 40.0307 6.85376C42.0799 4.81052 44.1034 2.7385 46.1398 0.681824C47.0351 -0.221807 47.6203 -0.221807 48.5175 0.681824C50.5538 2.7385 52.5792 4.8086 54.6285 6.85184C55.144 7.36601 55.3715 7.93773 55.3641 8.68021C55.3421 11.0285 55.355 13.3768 55.355 15.7251C55.355 15.9994 55.355 16.2738 55.355 16.5923H58.9379C58.9526 16.3237 58.9801 16.0551 58.9801 15.7865C58.9838 13.4132 58.9984 11.0381 58.9728 8.66486C58.9654 7.9243 59.1801 7.3545 59.6993 6.83841C61.7503 4.79709 63.7702 2.72123 65.8066 0.664557C66.6799 -0.21797 67.2633 -0.21797 68.1328 0.643453C68.7694 1.27657 69.406 1.90969 70.0298 2.55815C70.7233 3.27952 70.793 4.06037 70.2389 4.64169C69.6959 5.21149 68.9804 5.17887 68.298 4.4882C67.8797 4.06229 67.5274 3.56347 67.1055 3.04738C65.6525 4.51698 64.4068 5.93094 63.007 7.14921C61.8347 8.16988 61.4715 9.30373 61.4788 10.8884C61.5393 26.1274 61.5155 41.3682 61.5155 56.6072V57.6394H72.4404C72.4533 57.3382 72.4735 57.0676 72.4735 56.7971C72.4735 41.021 72.4735 25.2449 72.4845 9.46873C72.4845 8.94113 72.3671 8.54591 71.9745 8.20441C71.6387 7.91279 71.3232 7.5828 71.0553 7.22212C70.6315 6.65423 70.6792 5.94245 71.1599 5.4916C71.6553 5.02539 72.2478 4.94865 72.7597 5.38991C73.4348 5.97123 74.1026 6.59284 74.642 7.30461C74.9098 7.65763 74.9832 8.25045 74.985 8.73584C75.0034 19.5852 74.9997 30.4345 74.9997 41.2838C74.9997 47.0011 74.9997 52.7202 74.9997 58.4375C74.9997 59.9282 74.6053 60.3349 73.1614 60.3349C69.0355 60.3349 64.9113 60.3349 60.7853 60.3349C59.38 60.3349 58.9893 59.9339 58.9838 58.4854C58.9783 57.3669 58.9838 56.2484 58.9838 55.0685H55.355C55.355 56.1889 55.355 57.3017 55.355 58.4164C55.3513 59.9071 54.9477 60.333 53.5259 60.3349C49.376 60.3349 45.2262 60.3349 41.0764 60.3349C39.7555 60.3349 39.3152 59.8783 39.3023 58.5123C39.2913 57.4149 39.2858 56.3194 39.273 55.222C39.273 55.1779 39.2308 55.1357 39.1868 55.0513H35.6937C35.6937 56.1429 35.6937 57.2058 35.6937 58.2686C35.6937 59.9761 35.3488 60.3368 33.7178 60.3368C29.6175 60.3368 25.5154 60.3368 21.4151 60.3368C20.0905 60.3368 19.6558 59.8821 19.6466 58.5085C19.6392 57.4111 19.6319 56.3137 19.6209 55.2182C19.6209 55.174 19.5805 55.1318 19.5383 55.0513H16.0178C16.0178 55.8666 16.0178 56.6743 16.0178 57.4801C16.0178 57.8888 16.0251 58.2974 16.0159 58.7061C15.9884 59.8668 15.5536 60.3272 14.4474 60.3368C13.0311 60.3483 11.6166 60.3387 10.2003 60.3387C7.41723 60.3387 4.63416 60.3196 1.85293 60.3522C1.05672 60.3618 0.418286 60.1757 0.00183459 59.4255V24.1935C0.517353 23.3071 0.946646 23.052 1.62544 23.2668C2.40331 23.5143 2.55191 24.157 2.52622 24.8995C2.51889 25.1297 2.52622 25.3581 2.52622 25.5883C2.52622 35.9503 2.52622 46.3104 2.52622 56.6724V57.6355H13.486V56.588C13.486 41.6579 13.4383 26.7279 13.5374 11.7997C13.5521 9.58 13.1301 7.9243 11.4093 6.55447C10.1801 5.57601 9.15275 4.31937 8.04649 3.19895C7.94376 3.27377 7.89973 3.29871 7.86487 3.33324C6.75678 4.44791 5.72941 5.67002 4.52409 6.65423C2.9225 7.96075 2.32809 9.49558 2.48036 11.6348C2.67299 14.3514 2.53356 17.093 2.52256 19.8231C2.51889 20.7919 2.01071 21.496 1.28788 21.3579C0.825564 21.2696 0.429293 20.8092 0.00183459 20.5137C0.00183459 16.2757 0.00183459 12.0376 0.00183459 7.7996L0 7.80344ZM35.7506 28.1841C35.7047 28.539 35.6809 28.8651 35.6203 29.1855C35.4937 29.8532 35.0736 30.2024 34.4407 30.2177C33.8077 30.2331 33.3674 29.8992 33.2243 29.2373C33.1546 28.9189 33.1381 28.5812 33.1381 28.2531C33.1326 22.0006 33.1271 15.7481 33.1473 9.49559C33.1491 8.90659 32.9767 8.50562 32.5712 8.10848C31.1127 6.67725 29.6873 5.20765 28.2471 3.7534C28.06 3.56347 27.8655 3.38312 27.6619 3.18743C25.9777 4.88918 24.3578 6.54871 22.7085 8.17947C22.3398 8.54399 22.193 8.91427 22.193 9.44186C22.204 25.2391 22.2022 41.0363 22.204 56.8336C22.204 57.1022 22.2352 57.3688 22.2535 57.647H33.1345C33.1345 57.2979 33.1345 56.9967 33.1345 56.6954C33.1345 52.3058 33.1345 47.9162 33.1345 43.5266C33.1345 40.2344 33.1271 36.9422 33.14 33.65C33.1436 32.6351 33.6683 32.0192 34.437 32.0346C35.1837 32.0499 35.6497 32.637 35.6919 33.6154C35.6992 33.7939 35.6937 33.9723 35.6937 34.1507C35.6937 36.9844 35.6937 39.8161 35.6937 42.6498C35.6937 42.9184 35.6937 43.187 35.6937 43.4556H39.2491V28.1841H35.7506ZM41.8652 57.649C42.1551 57.6681 42.3698 57.6931 42.5844 57.6931C45.7326 57.695 48.8825 57.6777 52.0307 57.7084C52.6416 57.7142 52.8104 57.53 52.8085 56.895C52.7939 41.0421 52.7994 25.1892 52.7792 9.33635C52.7792 8.98142 52.5976 8.53823 52.3572 8.28691C50.8235 6.67917 49.2476 5.11365 47.6846 3.53661C47.569 3.41958 47.4314 3.32749 47.2938 3.21429C45.6261 4.89877 44.0062 6.56022 42.3551 8.18714C41.9808 8.5555 41.8579 8.93153 41.8579 9.45529C41.8689 25.2314 41.8671 41.0076 41.8671 56.7837C41.8671 57.058 41.8671 57.3324 41.8671 57.6509L41.8652 57.649ZM19.597 43.4882V28.2052H16.0691V43.4882H19.597ZM58.9379 43.4729V28.1936H55.3935V43.4729H58.9379ZM16.0673 19.3204V25.4099H19.6007V19.3204H16.0673ZM55.399 19.3185V25.4099H58.9342V19.3185H55.399ZM19.5824 52.3538V46.2298H16.0691V52.3538H19.5824ZM55.4082 46.2298V52.3231H58.9361V46.2298H55.4082ZM35.7396 19.3262V25.4099H39.262V19.3262H35.7396ZM35.7524 46.2317V52.3384H39.2473V46.2317H35.7524Z" fill="white"/>
<path d="M66.8707 21.1235C67.5041 21.1341 68.035 21.6964 68.023 22.3436C68.0111 22.982 67.4443 23.5496 66.8314 23.5373C66.198 23.5231 65.6876 22.9696 65.6978 22.303C65.7081 21.6275 66.2202 21.1129 66.8724 21.1235H66.8707Z" fill="white"/>
<path d="M65.6996 48.8671C65.7116 48.2092 66.2591 47.6595 66.8817 47.679C67.4974 47.6985 68.0415 48.2908 68.0228 48.9256C68.004 49.587 67.4735 50.1048 66.8254 50.0924C66.1704 50.0782 65.6843 49.5516 65.6979 48.8671H65.6996Z" fill="white"/>
<path d="M8.15488 21.1234C8.80542 21.1269 9.3057 21.6504 9.30229 22.3277C9.29887 22.9927 8.77127 23.5427 8.14293 23.5374C7.52825 23.5321 6.97332 22.9503 6.97674 22.3154C6.98015 21.6645 7.518 21.1216 8.15488 21.1234Z" fill="white"/>
<path d="M9.30229 48.9015C9.29888 49.5839 8.80067 50.0962 8.14378 50.0926C7.50396 50.0891 6.97333 49.5432 6.97674 48.8891C6.98015 48.251 7.54149 47.675 8.15572 47.6785C8.78702 47.6821 9.3057 48.2351 9.30229 48.9015Z" fill="white"/>
<path d="M29.0697 48.9024C29.0655 49.5782 28.4325 50.0962 27.6162 50.0926C26.8149 50.0891 26.1585 49.5445 26.1628 48.8882C26.167 48.2497 26.8661 47.675 27.6333 47.6785C28.4154 47.6821 29.074 48.2426 29.0697 48.9007V48.9024Z" fill="white"/>
<path d="M29.0697 22.3207C29.0697 22.9831 28.4124 23.5375 27.6269 23.5375C26.8564 23.5375 26.1649 22.9636 26.1628 22.3242C26.1628 21.6706 26.8244 21.1251 27.6226 21.1234C28.4316 21.1234 29.0676 21.6476 29.0697 22.3207Z" fill="white"/>
<path d="M47.2937 50.0912C46.4859 50.0592 45.8897 49.5055 45.9324 48.8276C45.9752 48.1692 46.6825 47.6367 47.4582 47.6811C48.2382 47.7255 48.8857 48.3289 48.8344 48.9642C48.781 49.6315 48.1078 50.1231 47.2937 50.0912Z" fill="white"/>
<path d="M47.3496 21.1236C48.1498 21.1112 48.8199 21.6406 48.8369 22.2994C48.854 22.9333 48.1711 23.523 47.4029 23.5372C46.6197 23.5514 45.9433 23.0042 45.9305 22.3437C45.9177 21.6725 46.5408 21.136 47.3496 21.1236Z" fill="white"/>
</svg>
