<svg width="78" height="58" viewBox="0 0 78 58" fill="none" xmlns="http://www.w3.org/2000/svg">
<path d="M77.1955 56.9006C76.8132 57.4655 76.2842 57.6385 75.6056 57.6381C51.2101 57.6258 26.8144 57.6278 2.41893 57.6276C2.24491 57.6276 2.0693 57.6377 1.89707 57.6182C1.21514 57.5409 0.769218 57.0509 0.806295 56.4325C0.841378 55.8451 1.29447 55.4076 1.95448 55.398C3.29701 55.3784 4.64015 55.3906 5.98309 55.3898C6.2506 55.3896 6.51811 55.3898 6.89047 55.3898C6.73499 55.1227 6.63452 54.9367 6.5217 54.7585C5.12334 52.5514 5.23517 49.7982 6.7621 47.6796C6.96382 47.3998 7.07426 46.9544 7.02861 46.6122C6.71166 44.2359 7.85287 42.1598 10.0761 41.3152C10.5599 41.1314 10.6466 40.8976 10.6412 40.4509C10.6215 38.785 10.6298 37.1187 10.635 35.4525C10.6378 34.5413 11.0104 34.0707 11.7182 34.0571C12.4544 34.043 12.8658 34.5385 12.8694 35.4756C12.8762 37.1666 12.8835 38.8578 12.8628 40.5485C12.858 40.9544 12.9681 41.1452 13.3717 41.3016C15.6466 42.1831 16.8318 44.3308 16.4423 46.7328C16.4036 46.971 16.4242 47.2923 16.5563 47.4735C18.3845 49.979 18.4315 52.5122 16.7373 55.095C16.7005 55.151 16.6907 55.225 16.6502 55.3432H34.2589C34.274 55.0938 34.3033 54.8327 34.3037 54.5713C34.3067 51.3385 34.2848 48.1054 34.3143 44.873C34.3296 43.1902 33.7211 41.8845 32.4224 40.783C27.4047 36.5273 27.7423 28.7091 33.0635 24.875C33.6332 24.4644 34.2094 24.1526 34.9173 24.521C35.6188 24.886 35.721 25.5221 35.7136 26.2327C35.6969 27.824 35.6865 29.4163 35.729 31.0069C35.7366 31.2865 35.9463 31.6533 36.1779 31.8176C36.9262 32.3486 37.7417 32.784 38.5036 33.2977C38.8733 33.547 39.1542 33.5205 39.51 33.2831C40.233 32.8007 40.9688 32.3333 41.7279 31.9107C42.1503 31.6752 42.3097 31.4008 42.2994 30.909C42.2657 29.2934 42.2948 27.6763 42.2832 26.0601C42.2782 25.3877 42.459 24.8308 43.0979 24.5119C43.7081 24.2073 44.2359 24.4008 44.7648 24.7616C50.1716 28.4506 50.6552 36.4231 45.6628 40.6961C44.2533 41.9024 43.5921 43.3006 43.6814 45.1197C43.7202 45.9135 43.7029 46.7115 43.6808 47.5066C43.6588 48.2954 43.2498 48.7385 42.5878 48.7471C41.9246 48.7559 41.4703 48.3125 41.4627 47.5379C41.4502 46.2458 41.4281 44.9483 41.5265 43.662C41.6712 41.7721 42.656 40.3303 44.087 39.1197C47.3994 36.318 47.8417 31.52 45.1403 28.1436C44.992 27.958 44.8206 27.7908 44.5248 27.4672C44.5248 28.9108 44.4967 30.1659 44.5341 31.4189C44.5622 32.3638 44.2024 33.0299 43.3883 33.5089C42.2966 34.1514 41.2275 34.8331 40.1561 35.5095C39.3826 35.9977 38.6282 36.0056 37.8501 35.5133C36.7374 34.809 35.613 34.1235 34.4907 33.4344C33.7968 33.0082 33.452 32.409 33.4651 31.58C33.4859 30.2743 33.4705 28.9682 33.4705 27.4868C32.2151 28.731 31.5176 30.0718 31.2503 31.614C30.728 34.6282 31.6262 37.1791 33.9621 39.155C35.7178 40.6402 36.5596 42.4863 36.5487 44.7679C36.5331 47.9759 36.5449 51.1838 36.5449 54.3917V55.3338H41.4498C41.4498 54.5115 41.449 53.7012 41.4504 52.8911C41.4508 52.5927 41.437 52.2927 41.4629 51.9963C41.5257 51.2773 41.9599 50.8625 42.6049 50.8798C43.2428 50.8969 43.6521 51.3209 43.677 52.0621C43.7047 52.8817 43.6865 53.703 43.6879 54.5237C43.6885 54.7904 43.6881 55.0573 43.6881 55.3557H61.3765C61.245 55.1253 61.1483 54.9395 61.0369 54.7629C59.6108 52.5008 59.7282 49.7914 61.3096 47.6294C61.4846 47.3902 61.5838 47.0025 61.5394 46.7109C61.1722 44.2943 62.3371 42.1833 64.6357 41.2935C65.0593 41.1296 65.1291 40.9199 65.1285 40.5332C65.1207 33.794 65.1173 27.0546 65.1344 20.3154C65.1356 19.8334 64.9734 19.6223 64.5358 19.4618C56.2165 16.4094 47.9039 13.339 39.5818 10.2949C39.2483 10.1729 38.7938 10.163 38.4629 10.2842C30.141 13.3282 21.8304 16.403 13.5083 19.4467C12.984 19.6385 12.8578 19.8972 12.8612 20.4135C12.8823 23.7207 12.8744 27.0283 12.8676 30.3357C12.867 30.6297 12.9127 31.0186 12.752 31.1964C12.4657 31.5134 12.0571 31.8586 11.6646 31.9067C11.1399 31.9711 10.7512 31.5702 10.6554 31.0065C10.6183 30.7884 10.6346 30.5601 10.6344 30.3365C10.6334 27.3773 10.6338 24.418 10.6338 21.4586V20.5281C9.83548 20.8225 9.12165 21.0914 8.40384 21.349C7.04216 21.8375 6.12621 21.4255 5.62189 20.082C5.07211 18.6178 4.53171 17.1501 4.00327 15.6782C3.53004 14.36 3.94765 13.4564 5.26607 12.9672C9.1059 11.5424 12.9445 10.1145 16.7983 8.72812C17.3762 8.52022 17.5347 8.24533 17.5217 7.65928C17.4821 5.84471 17.5028 4.02875 17.509 2.21338C17.5134 0.977291 18.101 0.379479 19.3335 0.370907C20.9248 0.359744 22.5165 0.357352 24.108 0.371904C25.3084 0.382668 25.8742 0.966527 25.8851 2.1777C25.8941 3.19253 25.8869 4.20775 25.8869 5.34158C26.9007 4.976 27.8279 4.64769 28.7508 4.30782C31.5925 3.2615 34.4367 2.22136 37.2717 1.15669C38.4197 0.725528 39.5491 0.71596 40.6919 1.13895C43.8578 2.31026 47.024 3.48057 50.1901 4.65108C50.2368 4.66842 50.286 4.67918 50.3319 4.69812C51.0873 5.00849 51.4075 5.57501 51.1802 6.19794C50.9524 6.82246 50.3293 7.07004 49.5722 6.79794C48.1003 6.2695 46.6359 5.72012 45.168 5.18072C43.444 4.54722 41.7354 3.8633 39.9858 3.31053C39.392 3.12316 38.625 3.0809 38.0527 3.2896C27.5821 7.10672 17.129 10.9723 6.67259 14.8288C6.51233 14.8878 6.35784 14.9628 6.15471 15.0501C6.6698 16.4413 7.17452 17.8044 7.69778 19.2179C10.0268 18.3625 12.2839 17.536 14.5388 16.7046C22.364 13.8192 30.1914 10.9396 38.0086 8.03304C38.7123 7.77131 39.3189 7.78964 40.0145 8.04719C49.9545 11.7262 59.9024 15.383 69.8486 19.0448C69.9638 19.0873 70.08 19.1272 70.2975 19.2041C70.8098 17.8285 71.3157 16.47 71.8531 15.0262C70.4364 14.5021 69.05 13.988 67.6626 13.4763C63.1447 11.8099 58.6259 10.1456 54.1087 8.47696C53.2779 8.16998 52.9595 7.69914 53.124 7.05728C53.3088 6.33568 53.9548 6.04265 54.7841 6.34425C57.2335 7.23509 59.6782 8.13908 62.1235 9.04088C65.5933 10.3202 69.0624 11.602 72.5315 12.8833C74.1144 13.468 74.4971 14.2964 73.9129 15.8965C73.4275 17.2257 72.9335 18.5515 72.441 19.8779C71.8447 21.4829 71.0322 21.8627 69.4441 21.2852C68.7943 21.0488 68.1424 20.8171 67.4147 20.5556C67.3933 20.8309 67.3632 21.038 67.363 21.2451C67.3606 27.6361 67.3664 34.0272 67.3505 40.4184C67.3493 40.9066 67.4629 41.1486 67.9549 41.3365C70.1141 42.1606 71.2848 44.2762 70.9625 46.5865C70.9192 46.8956 70.9537 47.2995 71.1221 47.5413C72.838 50.0033 72.918 52.4378 71.3211 54.9848C71.2591 55.0836 71.2086 55.1901 71.1004 55.3898C72.7049 55.3898 74.2117 55.4159 75.7169 55.378C76.3882 55.3611 76.8696 55.577 77.1955 56.1545V56.9006ZM14.2648 45.875C14.2813 44.7859 13.816 44.0065 12.9023 43.532C12.0184 43.0732 11.1186 43.1146 10.2967 43.6971C9.45654 44.2925 9.03095 45.1393 9.2572 46.1509C9.51255 47.2933 9.25501 48.2071 8.53002 49.1173C7.53772 50.3631 7.53453 52.1761 8.3845 53.5218C9.25341 54.8974 10.9061 55.6097 12.4986 55.2945C15.4185 54.717 16.6921 51.3393 14.8548 48.966C14.2349 48.165 13.9067 47.3531 14.2117 46.3495C14.2614 46.1864 14.2514 46.0054 14.2648 45.875ZM62.0816 51.3568C62.148 51.3857 62.2142 51.4146 62.2805 51.4435C62.2911 53.1676 63.3942 54.6495 65.0617 55.1791C66.7088 55.7024 68.4807 55.1123 69.4802 53.7076C70.4777 52.3057 70.492 50.4263 69.4232 49.0553C68.7877 48.24 68.4442 47.4179 68.7 46.3768C68.9707 45.2738 68.6157 44.3641 67.6959 43.7039C66.8477 43.0951 65.738 43.0738 64.8946 43.6333C63.9171 44.2817 63.5362 45.2234 63.7917 46.3427C64.0237 47.3587 63.7237 48.1421 63.1592 48.9759C62.678 49.687 62.4318 50.5571 62.0816 51.3568ZM23.646 2.66309H19.7846V7.59948C21.0249 7.14559 22.2072 6.72199 23.3791 6.27129C23.4997 6.22485 23.6318 6.01893 23.6344 5.88438C23.6553 4.8243 23.646 3.76363 23.646 2.66309Z" fill="white"/>
<path d="M38.923 20.1441C38.0782 20.1441 37.2334 20.1564 36.3892 20.1407C35.5518 20.1247 35.0864 19.7207 35.0754 19.0391C35.0642 18.3439 35.5153 17.9207 36.3506 17.9133C38.1139 17.8975 39.8776 17.8977 41.6412 17.9133C42.477 17.9207 42.9279 18.3425 42.9183 19.0378C42.9086 19.7179 42.4411 20.1253 41.6053 20.1405C40.7115 20.1566 39.817 20.1441 38.923 20.1441Z" fill="white"/>
</svg>
