<svg width="79" height="52" viewBox="0 0 79 52" fill="none" xmlns="http://www.w3.org/2000/svg">
<path d="M0.481689 45.6696C0.866351 44.9112 1.16519 44.0905 1.65657 43.4095C2.35103 42.4472 3.11244 42.1313 5.01364 41.6631C5.22382 39.9398 5.37639 38.2007 5.65555 36.4825C6.88481 28.9167 9.37233 21.8611 14.2946 15.8554C15.3812 14.5298 16.6484 13.3456 17.8951 12.1626C18.3218 11.7576 18.4512 11.399 18.3597 10.8491C18.248 10.1776 18.1199 9.48599 18.1682 8.81527C18.2672 7.43771 19.2837 6.29651 20.5523 5.97717C21.897 5.63856 23.2611 6.16281 24.0761 7.33546C24.1905 7.5002 24.2897 7.67549 24.3804 7.82075C26.2623 7.15956 28.1153 6.50831 30.0442 5.83049C30.0053 5.25431 29.9491 4.60489 29.9197 3.95445C29.8213 1.77917 31.2855 0.203188 33.4699 0.191827C37.3926 0.171336 41.3157 0.171944 45.2384 0.191421C47.4228 0.202376 48.8911 1.7743 48.7963 3.94755C48.7689 4.5777 48.7072 5.20643 48.6618 5.82846C50.5581 6.4935 52.4313 7.15043 54.3345 7.81791C55.0588 6.48458 56.1617 5.73027 57.7715 5.92402C59.4751 6.12913 60.8817 7.73331 60.5183 9.40078C60.1521 11.081 60.7052 12.0634 61.9247 13.1947C66.4889 17.4284 69.3153 22.7783 71.211 28.6487C72.4845 32.5917 73.2802 36.6355 73.5595 40.7761C73.5798 41.0749 73.6305 41.3717 73.667 41.6708C74.0996 41.7704 74.4978 41.8359 74.8797 41.9546C77.0483 42.6286 78.4518 44.7536 78.2152 46.9836C77.9675 49.3184 76.0967 51.1037 73.7143 51.2721C73.4118 51.2934 73.1073 51.2873 72.8036 51.2873C56.6314 51.2879 40.4589 51.2879 24.2867 51.2871C24.0085 51.2871 23.7259 51.3054 23.4531 51.2646C22.8081 51.168 22.3932 50.6614 22.4567 50.0447C22.5233 49.3969 22.9045 49.0465 23.5531 49.0063C23.8306 48.9893 24.1098 48.9984 24.3881 48.9984C40.5857 48.998 56.7833 49.0039 72.9809 48.9775C73.6299 48.9763 74.3491 48.7972 74.9109 48.4797C75.8192 47.9662 76.1424 46.8083 75.8431 45.8122C75.5208 44.74 74.634 44.0406 73.4763 44.0163C72.1609 43.9885 70.8444 44.0078 69.5283 44.0078C66.0105 44.0074 62.4926 44.0076 58.9746 44.0076C58.7722 44.0076 58.5695 44.0134 58.3672 44.0051C57.6133 43.9743 57.1207 43.5148 57.1294 42.8568C57.1381 42.1983 57.6273 41.7402 58.3946 41.7304C59.7105 41.7136 61.0266 41.7252 62.3426 41.7252H70.4668H71.3852C70.4658 31.3634 67.6484 21.9289 59.9156 14.3068C59.6247 16.4584 59.3603 18.401 59.0996 20.344C58.6849 23.4324 58.2919 26.5239 57.8521 29.6087C57.581 31.5107 55.9558 32.702 54.1014 32.4288C52.3619 32.1723 51.1891 30.4673 51.439 28.6193C52.2402 22.6943 53.0176 16.7662 53.8336 10.8433C53.9002 10.3608 53.7784 10.1508 53.3611 9.9936C51.7634 9.39145 50.1714 8.77429 48.463 8.11898C48.3055 9.86396 48.1601 11.4237 48.0247 12.9845C47.6088 17.7822 47.2337 22.5838 46.772 27.377C46.3974 31.2642 43.0651 34.1707 39.2238 34.0727C35.3143 33.9727 32.2266 31.0017 31.9075 27.1108C31.4145 21.0987 30.8777 15.0902 30.3565 9.08043C30.3348 8.83069 30.2826 8.58358 30.2161 8.14982C28.3784 8.83333 26.6012 9.49431 24.7965 10.1654C25.0384 11.9455 25.2552 13.5988 25.4916 15.2492C25.5715 15.8071 25.5573 16.3219 25.0623 16.6907C24.3273 17.2385 23.3979 16.7668 23.2555 15.7607C22.9501 13.6037 22.663 11.4438 22.365 9.28555C22.2526 8.4726 21.8446 8.09078 21.2161 8.19486C20.6249 8.29285 20.3713 8.7538 20.477 9.53996C21.351 16.0431 22.225 22.546 23.0992 29.0492C23.2094 29.868 23.6016 30.2514 24.2333 30.1597C24.8444 30.0711 25.1005 29.5838 24.9876 28.7536C24.6225 26.0676 24.2585 23.3813 23.9014 20.6941C23.7947 19.8909 24.1719 19.3139 24.8446 19.2086C25.5129 19.104 26.0449 19.5542 26.1562 20.3584C26.549 23.194 26.9446 26.0295 27.3108 28.8688C27.5194 30.4868 26.3299 32.091 24.7397 32.4105C23.0374 32.7528 21.3064 31.7408 20.9801 30.0244C20.5833 27.937 20.361 25.8161 20.0731 23.7081C19.6555 20.6515 19.2471 17.5935 18.8047 14.3121C11.0729 21.9049 8.26216 31.3401 7.32567 41.7189H8.35569C23.2372 41.7189 38.1189 41.7187 53.0004 41.7201C53.3035 41.7203 53.6167 41.6939 53.9075 41.7592C54.4924 41.8907 54.8484 42.2869 54.8261 42.8954C54.803 43.5322 54.4287 43.9217 53.7835 43.9944C53.5084 44.0254 53.2274 44.0072 52.9491 44.0072C37.1816 44.0076 21.4143 44.0104 5.64703 44.0013C4.6166 44.0007 3.74218 44.263 3.16519 45.1672C2.6448 45.983 2.60869 46.8457 3.07978 47.6907C3.58089 48.589 4.38593 48.9974 5.40398 48.9976C9.70647 48.9982 14.009 48.9978 18.3115 48.9986C18.5644 48.9986 18.8189 48.9877 19.0702 49.0102C19.6819 49.0652 20.0532 49.4066 20.1122 50.0187C20.1751 50.6714 19.8349 51.0855 19.2187 51.2415C18.955 51.3082 18.6661 51.2861 18.3883 51.2863C14.3896 51.2885 10.3908 51.2879 6.39201 51.2879C2.90916 51.2879 1.76552 50.5245 0.481689 47.3433V45.6696ZM39.4238 2.47525C37.4754 2.47525 35.5269 2.46754 33.5786 2.47849C32.5656 2.48418 32.153 2.92463 32.2082 3.94086C32.2563 4.82623 32.335 5.71038 32.4123 6.59393C33.0012 13.334 33.6058 20.0729 34.1785 26.8144C34.4208 29.6661 36.561 31.7659 39.3295 31.7877C42.1104 31.8094 44.3055 29.6828 44.5384 26.7942C44.7929 23.6369 45.0899 20.4831 45.3644 17.3275C45.744 12.9601 46.1309 8.59332 46.491 4.22428C46.607 2.81893 46.2465 2.47606 44.8134 2.47525C43.0168 2.47423 41.2203 2.47505 39.4238 2.47525ZM54.7569 30.1689C55.322 30.1072 55.5413 29.6698 55.6241 29.0463C56.4869 22.5477 57.3644 16.0508 58.237 9.55355C58.3465 8.73858 58.06 8.25106 57.4382 8.18492C56.8379 8.12101 56.4601 8.49086 56.3536 9.26851C55.8592 12.8796 55.3656 16.4909 54.8772 20.1029C54.4804 23.0376 54.0901 25.9731 53.6999 28.9088C53.6003 29.6582 53.9901 30.175 54.7569 30.1689Z" fill="white"/>
</svg>
