<svg width="69" height="69" viewBox="0 0 69 69" fill="none" xmlns="http://www.w3.org/2000/svg">
<path d="M68.1952 34.0479C67.6993 35.5872 67.1899 37.1222 66.7097 38.6665C65.4 42.8776 64.1293 47.1012 62.78 51.2997C62.473 52.2554 62.5778 53.155 62.6973 54.0864C63.2458 58.3561 63.7999 62.6249 64.3455 66.8949C64.4398 67.6319 64.0886 68.1451 63.4811 68.2098C62.8998 68.2717 62.476 67.8693 62.3827 67.1582C62.1605 65.4615 61.9416 63.7644 61.7169 62.0329H44.5951C44.2382 63.691 43.8833 65.3392 43.529 66.9874C43.5059 67.0947 43.4945 67.2047 43.4663 67.3106C43.2945 67.9553 42.8248 68.3071 42.286 68.1987C41.7247 68.0855 41.4108 67.6099 41.5356 66.938C41.7477 65.7946 42.0008 64.6587 42.2428 63.5209C43.0237 59.8498 43.7985 56.1774 44.597 52.5101C44.7773 51.6825 44.9829 50.8505 45.2832 50.0609C46.0068 48.1575 47.4509 47.2054 49.5153 47.075C49.5676 46.8935 49.6295 46.6913 49.6845 46.4876C50.2417 44.421 51.9797 43.0503 54.1189 43.0209C55.5257 43.0013 56.9335 42.9914 58.3396 43.0283C58.8099 43.0406 58.9753 42.8702 59.1 42.4491C59.6987 40.4296 60.3212 38.4173 60.9511 36.4072C61.6718 34.1083 63.5611 32.8953 65.9536 33.1622C66.1052 33.1792 66.2999 33.155 66.4178 33.0706C67.2276 32.4901 67.5997 32.5493 68.1952 33.3882V34.0479ZM45.0375 59.9585H61.4613C61.2019 57.9606 60.9053 56.0277 60.7229 54.0843C60.6559 53.3716 60.3944 53.2495 59.7565 53.2533C55.5782 53.2787 51.3995 53.2664 47.221 53.2664H46.4569C45.9726 55.5496 45.5093 57.7343 45.0375 59.9585ZM62.6808 44.9939C62.0229 44.9939 61.4361 45.0177 60.8528 44.9853C60.467 44.964 60.3193 45.1189 60.2227 45.4738C60.0156 46.2345 59.7745 46.9871 59.5204 47.7334C59.2197 48.6162 58.6258 49.053 57.7012 49.078C56.9989 49.097 56.2958 49.0835 55.5932 49.0836C54.259 49.084 52.9247 49.0838 51.5597 49.0838V51.1855C51.6233 51.2246 51.642 51.2461 51.6609 51.2463C54.5793 51.2604 57.4978 51.2771 60.4162 51.2719C60.5551 51.2715 60.7765 51.0998 60.8202 50.9634C61.4462 49.0047 62.0482 47.0383 62.6808 44.9939ZM63.2964 42.9909C64.0986 40.3861 64.8998 37.7845 65.7052 35.1695C64.3092 34.9855 63.3019 35.5984 62.8914 36.8765C62.2819 38.7734 61.7049 40.6807 61.1187 42.585C61.0819 42.7051 61.0845 42.8372 61.0653 42.9909H63.2964ZM51.5978 47.1041C53.5299 47.1041 55.415 47.1088 57.3001 47.0947C57.442 47.0937 57.6709 46.9899 57.7095 46.881C57.9227 46.2782 58.0895 45.6589 58.2855 45.0003C56.7909 45.0003 55.3877 44.9729 53.9862 45.0087C52.8255 45.0383 51.9243 45.8395 51.5978 47.1041ZM49.5026 49.1257C48.1476 49.0984 47.0297 50.1261 47.1356 51.2354H49.5026V49.1257Z" fill="white"/>
<path d="M34.8103 0.668457C35.3708 1.22115 35.6926 3.10959 35.252 3.76098C35.0778 4.01847 34.6558 4.23948 34.3486 4.23684C34.0715 4.23454 33.5847 3.92894 33.5595 3.71393C33.4643 2.90215 33.4871 2.07046 33.5414 1.25129C33.555 1.04738 33.8519 0.862147 34.0186 0.668457H34.8103Z" fill="white"/>
<path d="M19.2934 47.0625C21.6782 47.3288 23.2284 48.5108 23.6745 50.4747C24.6791 54.8968 25.6489 59.3266 26.6281 63.7546C26.8604 64.8046 27.0941 65.855 27.2897 66.9121C27.4246 67.6414 27.0567 68.159 26.4364 68.2112C25.9098 68.2556 25.4949 67.9165 25.3535 67.2715C25.0199 65.7493 24.7059 64.2228 24.3819 62.6985C24.3364 62.4849 24.2797 62.2736 24.2205 62.0299H7.11457C6.89286 63.7228 6.67361 65.395 6.45507 67.067C6.3495 67.8746 5.9237 68.297 5.30685 68.2047C4.68401 68.1113 4.38951 67.5949 4.49367 66.7891C5.09025 62.1714 5.69265 57.5543 6.26931 52.9342C6.31901 52.5364 6.26173 52.097 6.14348 51.7109C4.38493 45.9618 2.6077 40.2184 0.83488 34.4737C0.77672 34.2849 0.635198 34.0729 0.679082 33.9114C0.780069 33.5389 0.880879 33.0574 1.15317 32.8727C1.39427 32.7089 1.87013 32.8645 2.23636 32.9197C2.50689 32.9606 2.77707 33.1566 3.03121 33.1298C5.53773 32.8656 7.86202 34.7308 8.11739 37.2592C8.16991 37.7791 7.91877 38.1569 7.41066 38.3122C6.8918 38.471 6.49191 38.263 6.26455 37.7965C6.10294 37.4643 6.03103 37.0898 5.90167 36.7405C5.47552 35.5896 4.43111 34.9832 3.12497 35.1703C3.47499 36.3048 3.82289 37.429 4.16886 38.5542C4.57527 39.8753 4.99314 41.1932 5.37682 42.521C5.48662 42.9009 5.65652 43.0505 6.05941 43.0237C6.60506 42.9874 7.15493 43.0147 7.7991 43.0147C7.71996 42.6975 7.65687 42.435 7.58919 42.1738C7.42194 41.5299 7.65511 41.0396 8.21803 40.8557C8.76543 40.677 9.25028 40.9588 9.47322 41.6035C9.63026 42.0568 9.76614 42.5177 9.92405 43.0147C11.3451 43.0147 12.7499 43.0142 14.1546 43.0149C17.012 43.0163 18.6181 44.2738 19.2934 47.0625ZM22.3803 53.305C22.1993 53.2893 22.0703 53.2687 21.9413 53.2685C17.5428 53.2667 13.1444 53.2725 8.74587 53.2579C8.31267 53.2565 8.17167 53.4061 8.14559 53.8193C8.11087 54.3661 8.009 54.9086 7.94044 55.4535C7.75204 56.9507 7.5661 58.4481 7.37523 59.9768H23.7312C23.7312 59.8533 23.7462 59.7648 23.7291 59.6832C23.286 57.5778 22.8394 55.4729 22.3803 53.305ZM17.2591 51.2873V49.0838H16.6209C14.8423 49.0836 13.0636 49.0896 11.2852 49.0813C10.1822 49.076 9.58267 48.6249 9.2434 47.5752C9.16938 47.3457 9.10946 47.1118 9.03826 46.8814C8.41295 44.86 8.4126 44.86 6.29258 45.0156C6.27125 45.0172 6.25081 45.0284 6.16797 45.0551C6.78112 47.0374 7.38369 49.0246 8.02962 50.9974C8.07826 51.1458 8.4348 51.2722 8.64999 51.2748C10.4283 51.2969 12.2071 51.2873 13.9857 51.2873H17.2591ZM10.534 45.002C10.7291 45.6479 10.8761 46.2204 11.085 46.7694C11.1414 46.9176 11.3846 47.088 11.5441 47.09C13.4267 47.1122 15.3097 47.1042 17.199 47.1042C17.0093 45.9481 16.0552 45.0496 14.8921 45.0128C13.4697 44.9677 12.0446 45.002 10.534 45.002ZM19.3292 51.232H21.7406C21.6382 49.935 20.491 48.9736 19.3292 49.1721V51.232Z" fill="white"/>
<path d="M34.483 41.6258C37.4062 41.6258 40.3295 41.6251 43.2529 41.627C43.4941 41.6272 43.7391 41.6224 43.9758 41.6607C44.5313 41.7504 44.8463 42.0971 44.8263 42.6561C44.8064 43.215 44.4687 43.5576 43.9078 43.5863C43.228 43.6212 42.5429 43.6404 41.8651 43.5935C41.2158 43.5486 40.7268 43.7874 40.267 44.2084C38.9398 45.4234 38.1164 46.9458 37.74 48.667C37.4466 50.0096 37.2481 51.3956 37.213 52.7675C37.1358 55.7983 37.1788 58.8323 37.201 61.8649C37.2035 62.1892 37.329 62.5527 37.5052 62.829C38.2848 64.0508 39.108 65.2448 39.9069 66.4543C40.3614 67.1423 40.2992 67.7179 39.7536 68.0606C39.2319 68.388 38.7107 68.2176 38.2662 67.5565C37.5061 66.4268 36.7423 65.2994 36.0058 64.1543C35.7818 63.8063 35.5244 63.7016 35.112 63.637C33.627 63.4049 32.6274 63.8977 31.9726 65.2856C31.5927 66.091 30.9971 66.7957 30.4917 67.5408C30.0237 68.2306 29.4821 68.3997 28.9541 68.0329C28.4608 67.6904 28.4109 67.114 28.8368 66.4688C29.6475 65.2409 30.4774 64.0255 31.2722 62.7876C31.4275 62.5458 31.5361 62.2255 31.5375 61.9409C31.553 58.7983 31.5537 55.6557 31.5364 52.5133C31.5245 50.3565 31.1438 48.2744 30.1166 46.3507C29.8799 45.9076 29.5897 45.4896 29.2932 45.0824C28.5403 44.0475 27.6159 43.369 26.2308 43.5935C25.8255 43.6593 25.3951 43.6204 24.9816 43.5765C24.4487 43.5198 24.1491 43.1748 24.1332 42.6505C24.1173 42.1251 24.3999 41.7738 24.9259 41.6742C25.1822 41.6256 25.4502 41.6279 25.713 41.6277C28.6364 41.6247 31.5597 41.6258 34.483 41.6258ZM30.6847 43.6538C32.6746 46.1309 33.333 48.958 33.528 51.9575H35.2224C35.4104 48.9501 36.0828 46.1267 38.0553 43.6538H30.6847ZM33.5655 61.6337H35.1691V53.9952H33.5655V61.6337Z" fill="white"/>
<path d="M28.0492 12.2751C28.064 9.37483 30.0093 6.87483 32.8246 6.13796C35.5643 5.42101 38.5185 6.63355 39.8972 9.0902C40.0786 9.41325 40.166 9.90602 40.0609 10.2478C39.8567 10.9134 38.982 11.0276 38.4984 10.5077C38.3364 10.3336 38.2293 10.1085 38.0969 9.90691C37.0047 8.24247 34.9536 7.516 33.0675 8.12562C31.1739 8.73771 29.9626 10.4873 30.0338 12.5077C30.1022 14.4499 31.4753 16.1251 33.3803 16.5904C35.2701 17.0519 37.2573 16.1933 38.2326 14.492C38.3198 14.3398 38.3902 14.1776 38.4808 14.0275C38.7915 13.5132 39.2758 13.3431 39.7638 13.5705C40.2769 13.8096 40.4884 14.3392 40.2331 14.8977C39.3089 16.9201 37.7374 18.1744 35.5626 18.58C31.623 19.3145 28.0287 16.2726 28.0492 12.2751Z" fill="white"/>
<path d="M35.38 22.1607C35.38 22.4667 35.4109 22.7765 35.3733 23.0777C35.3031 23.6383 34.9527 23.9381 34.3918 23.9295C33.8623 23.9213 33.5023 23.629 33.4619 23.0988C33.4142 22.4686 33.4096 21.829 33.4586 21.1991C33.5019 20.6425 33.881 20.3315 34.4358 20.3412C34.9571 20.3501 35.3006 20.6519 35.369 21.1785C35.4108 21.5007 35.3766 21.8329 35.3766 22.1605L35.38 22.1607Z" fill="white"/>
<path d="M24.5754 11.3428C24.8819 11.3428 25.1909 11.3183 25.4944 11.3482C26.0215 11.4 26.3326 11.7097 26.3731 12.2397C26.414 12.7723 26.1481 13.1852 25.6355 13.2446C24.9466 13.3242 24.2344 13.329 23.5458 13.2483C23.0007 13.1843 22.7321 12.7495 22.7989 12.1898C22.8618 11.6626 23.1935 11.3761 23.7217 11.3417C24.0051 11.3234 24.2908 11.3385 24.5754 11.3385V11.3428Z" fill="white"/>
<path d="M44.2366 13.2939C43.9303 13.2939 43.6195 13.3272 43.3186 13.2867C42.7523 13.2106 42.4032 12.779 42.4541 12.2391C42.5072 11.6769 42.8401 11.3664 43.399 11.3426C43.9455 11.3191 44.4943 11.3195 45.0409 11.3398C45.6408 11.362 46.0123 11.7199 46.0396 12.255C46.0685 12.8209 45.7025 13.2374 45.0902 13.2987C44.8084 13.3271 44.5213 13.3036 44.2366 13.3036V13.2939Z" fill="white"/>
<path d="M28.2083 17.6422C28.4048 17.8052 28.7684 17.9704 28.8849 18.2416C29.0026 18.5158 28.9989 18.9878 28.8317 19.2097C28.427 19.7462 27.9231 20.219 27.4069 20.6558C27.053 20.9552 26.5515 20.9436 26.2807 20.5793C26.0668 20.2917 25.865 19.6945 26.0118 19.4942C26.4806 18.8542 27.1089 18.3294 27.6907 17.7756C27.7721 17.6981 27.9369 17.708 28.2083 17.6422Z" fill="white"/>
<path d="M42.0604 20.9203C41.756 20.7925 41.5177 20.7539 41.3678 20.6179C40.8974 20.1921 40.4307 19.755 40.0195 19.2735C39.6803 18.8768 39.7095 18.4073 40.0689 18.0197C40.4513 17.6073 40.9386 17.549 41.3658 17.9032C41.8526 18.307 42.3311 18.7492 42.6966 19.2582C42.8746 19.5058 42.8991 19.9853 42.7874 20.283C42.6861 20.5532 42.3059 20.7183 42.0604 20.9203Z" fill="white"/>
<path d="M29.058 6.13305C28.9126 6.30894 28.749 6.67253 28.4803 6.7855C28.2048 6.90129 27.7341 6.89371 27.5111 6.72523C26.9759 6.32092 26.4607 5.84102 26.091 5.28885C25.9191 5.03224 25.9656 4.41963 26.1662 4.18205C26.3694 3.9413 27.0333 3.76101 27.2362 3.90923C27.8768 4.37715 28.402 5.00546 28.9549 5.58811C29.0296 5.66689 29.0067 5.8382 29.058 6.13305Z" fill="white"/>
<path d="M43.0273 4.69736C42.8785 5.01177 42.8199 5.26221 42.6692 5.42964C42.2746 5.86813 41.8615 6.29587 41.4145 6.67991C40.9945 7.04067 40.5072 7.02375 40.107 6.64378C39.7028 6.26009 39.6695 5.76115 40.0203 5.34134C40.4249 4.85685 40.8676 4.37959 41.3782 4.01829C41.6246 3.84399 42.1082 3.83271 42.4036 3.95026C42.6694 4.05601 42.8248 4.4388 43.0273 4.69736Z" fill="white"/>
</svg>
