<svg width="70" height="70" viewBox="0 0 70 70" fill="none" xmlns="http://www.w3.org/2000/svg">
<path d="M68.5814 0.696289C69.2348 1.07822 69.4277 1.65715 69.3967 2.39118C69.355 3.37322 69.3958 4.35823 69.383 5.34187C69.3723 6.17223 68.9043 6.71062 68.2229 6.71449C67.5413 6.71837 67.0796 6.19569 67.0587 5.35348C67.0404 4.61877 67.0548 3.88315 67.0548 3.089H33.6639V29.5058H34.4611C40.9001 29.5058 47.3392 29.5056 53.7783 29.5069C54.0461 29.5069 54.3174 29.4994 54.5813 29.5358C55.196 29.6203 55.5358 29.9925 55.5807 30.6076C55.6237 31.1993 55.2293 31.694 54.6321 31.7969C54.3921 31.8384 54.142 31.8277 53.8965 31.8277C47.4351 31.829 40.9737 31.8288 34.5121 31.8288H33.6113V32.5826C33.6113 34.7066 33.6122 36.8306 33.61 38.9548C33.6097 39.2 33.6116 39.4483 33.5785 39.6904C33.495 40.3067 33.1265 40.6471 32.5104 40.6925C31.916 40.7362 31.4209 40.3488 31.315 39.7503C31.2687 39.4891 31.281 39.2158 31.281 38.9482C31.2797 27.2773 31.2799 15.6064 31.2799 3.93553V3.08239H16.4789V53.6062H31.2799V49.0371C31.2799 48.7242 31.2703 48.4108 31.2833 48.0983C31.3156 47.3137 31.7778 46.8257 32.4653 46.8357C33.134 46.8453 33.5876 47.2983 33.5997 48.0674C33.6245 49.6543 33.6097 51.2419 33.6113 52.8293V53.6034H67.0083V31.8288C65.6512 31.8288 64.3362 31.8295 63.0212 31.8281C62.7754 31.8279 62.5267 31.8409 62.2844 31.8092C61.6818 31.7306 61.2431 31.2492 61.2324 30.6837C61.2213 30.0984 61.6836 29.5573 62.3158 29.5345C63.4546 29.4935 64.5956 29.5115 65.7355 29.506C66.1358 29.5042 66.5362 29.5058 67.0532 29.5058V28.6189C67.0532 22.4481 67.0527 16.2773 67.0546 10.1066C67.0548 9.83895 67.0543 9.56816 67.0912 9.3042C67.1778 8.68724 67.5533 8.34607 68.1696 8.31692C68.7925 8.28754 69.1803 8.62347 69.3366 9.20991C69.3928 9.42126 69.3844 9.65311 69.3846 9.87562C69.3865 24.7213 69.3867 39.5669 69.3853 54.4126C69.3853 55.5876 68.9925 55.977 67.8107 55.9772C50.4386 55.9784 33.0666 55.9781 15.6943 55.9772C14.4797 55.9772 14.1053 55.5962 14.1053 54.3643C14.1044 37.0146 14.108 19.6646 14.0934 2.31488C14.0928 1.59475 14.2984 1.06159 14.9165 0.696289H68.5814Z" fill="white"/>
<path d="M0.695557 48.1897C1.11028 47.5746 1.70106 47.3912 2.41823 47.4286C3.10466 47.4643 3.79428 47.4363 4.56725 47.4363V46.5162C4.56725 36.9743 4.56702 29.7099 4.56816 20.1682C4.56816 19.9004 4.557 19.6289 4.59435 19.3654C4.67976 18.7646 5.16281 18.3695 5.757 18.3834C6.31976 18.3966 6.77571 18.7867 6.85793 19.3597C6.89573 19.6232 6.8848 19.8947 6.8848 20.1625C6.88594 29.7042 6.88571 36.9686 6.88571 46.5103V47.4363C7.69922 47.4363 8.43143 47.4388 9.16363 47.4356C9.74006 47.4329 10.291 47.4814 10.6091 48.0669C10.9127 48.6256 10.6709 49.0927 10.3755 49.5637C9.21305 51.4173 8.06248 53.2785 6.90006 55.1323C6.17172 56.2938 5.27372 56.2824 4.53468 55.1077C3.25315 53.0712 1.97504 51.0324 0.695557 48.9945V48.1897ZM5.72602 52.5993C6.32614 51.633 6.87045 50.7569 7.44893 49.8254H4.00449C4.59162 50.7712 5.13434 51.646 5.72602 52.5993Z" fill="white"/>
<path d="M6.06195 0.696533C6.36394 1.0131 6.72697 1.29072 6.95813 1.65261C8.12328 3.4755 9.24995 5.32298 10.3998 7.15566C10.6998 7.63324 10.9084 8.10855 10.587 8.65172C10.286 9.16096 9.79153 9.25161 9.25496 9.24888C8.49793 9.245 7.74067 9.24796 6.88594 9.24796C6.88594 9.82325 6.88594 10.3505 6.88594 10.8777C6.88503 11.9269 6.89846 12.9764 6.87865 14.0252C6.86453 14.7893 6.35529 15.3129 5.69756 15.2924C5.05599 15.2723 4.58547 14.7733 4.57522 14.0341C4.55632 12.717 4.56816 11.3997 4.56725 10.0827C4.56725 9.84079 4.56725 9.59892 4.56725 9.24819C3.81432 9.24819 3.10944 9.21858 2.40844 9.25639C1.68603 9.29533 1.10277 9.09811 0.695557 8.47795V7.67287C1.95932 5.663 3.21193 3.64631 4.49619 1.64965C4.72804 1.28936 5.08947 1.01219 5.39124 0.696533H6.06195ZM4.0054 6.85116H7.44597C6.85884 5.90442 6.31725 5.03101 5.72739 4.08016C5.13889 5.02691 4.60278 5.88938 4.0054 6.85116Z" fill="white"/>
<path d="M60.8348 63.1555C60.8348 62.3618 60.8387 61.6071 60.8336 60.8523C60.83 60.2909 60.9204 59.7755 61.4695 59.4742C61.9961 59.1853 62.4525 59.3859 62.9093 59.6722C64.8017 60.8578 66.7031 62.0286 68.5943 63.2164C69.675 63.8952 69.6629 64.8238 68.5677 65.5111C66.676 66.6981 64.7816 67.8806 62.8811 69.0531C61.736 69.7595 60.8557 69.2573 60.8368 67.8961C60.8264 67.1381 60.835 66.38 60.835 65.5687H22.6465C22.6465 66.3025 22.6435 67.0302 22.6474 67.7581C22.6503 68.3316 22.6205 68.8913 22.047 69.2232C21.4695 69.5573 20.9823 69.2965 20.4913 68.9886C18.675 67.8498 16.8512 66.723 15.0324 65.5881C13.7801 64.8062 13.7687 63.9169 15.0031 63.1451C16.8398 61.9968 18.6823 60.8578 20.5179 59.7079C20.9891 59.4128 21.4558 59.17 22.0149 59.4733C22.6009 59.791 22.6499 60.3417 22.6471 60.9184C22.644 61.6508 22.6465 62.3835 22.6465 63.1555H60.8348ZM20.2376 66.065V62.6449C19.2988 63.2284 18.4343 63.7659 17.4834 64.3573C18.4375 64.9488 19.3132 65.4917 20.2376 66.065ZM63.2405 62.6424V66.0729C64.1854 65.4852 65.0552 64.9443 66.0017 64.3558C65.042 63.7602 64.1804 63.2257 63.2405 62.6424Z" fill="white"/>
</svg>
