<svg width="68" height="69" viewBox="0 0 68 69" fill="none" xmlns="http://www.w3.org/2000/svg">
<path d="M4.293 68.6772C3.75818 68.3172 3.63032 67.8036 3.63458 67.1793C3.65589 64.1686 3.64311 61.1579 3.64311 58.1471C3.64311 57.9064 3.64311 57.6635 3.64311 57.3928C3.28728 57.3417 2.97832 57.3225 2.68215 57.248C1.37813 56.9177 0.481095 55.6478 0.60894 54.3416C0.747438 52.9119 1.83196 51.8444 3.24677 51.8039C4.40589 51.7698 5.56716 51.7933 6.72629 51.789C6.96706 51.789 7.20784 51.789 7.48271 51.789V40.4726C6.95216 40.8583 6.51106 41.1843 6.06574 41.4997C4.25248 42.7888 1.96623 42.4734 0.721875 40.7667C-0.524608 39.0557 -0.124039 36.7822 1.67004 35.4633C3.28728 34.2743 4.91305 33.1003 6.53454 31.9156C6.9202 31.6343 7.31649 31.4873 7.77459 31.7387C8.48413 32.1287 8.49055 32.998 7.75332 33.5456C6.15952 34.726 4.5508 35.8894 2.94209 37.0507C2.33909 37.4853 1.95346 38.0308 2.06638 38.8021C2.26454 40.1317 3.68148 40.69 4.83208 39.8718C6.68369 38.5528 8.51611 37.202 10.3528 35.8638C24.0343 25.9026 37.7136 15.9393 51.4058 5.99727C51.7509 5.74584 52.2623 5.61373 52.697 5.60947C56.3555 5.57964 60.014 5.59242 63.6725 5.59242C65.1214 5.59242 65.9225 4.98942 65.9332 3.89849C65.9438 2.80755 65.1256 2.17472 63.7001 2.17472C59.8179 2.17472 55.9379 2.18963 52.0557 2.16193C51.2332 2.15554 50.5556 2.37501 49.8908 2.85868C37.3365 12.0166 24.7694 21.1596 12.2065 30.3047C12.0446 30.4219 11.8869 30.5477 11.7186 30.6563C11.1497 31.0271 10.5829 30.961 10.2356 30.4923C9.89043 30.0256 9.99272 29.4418 10.5147 29.0284C10.9004 28.7237 11.301 28.4425 11.6995 28.1548C24.0663 19.1546 36.4352 10.1565 48.7913 1.14344C49.7353 0.45521 50.7261 0.127076 51.8958 0.135599C56.0231 0.16756 60.1504 0.135599 64.2776 0.154775C65.9886 0.161168 67.4588 1.33307 67.8636 2.94178C68.2791 4.59311 67.5888 6.32327 66.0823 7.10099C65.49 7.40568 64.7762 7.56762 64.1071 7.60597C62.7285 7.68055 61.3436 7.62941 59.916 7.62941V17.7483C60.1418 17.7611 60.3762 17.7824 60.6127 17.7824C62.6433 17.7845 64.6718 17.7803 66.7024 17.7866C67.6441 17.7888 67.9915 18.134 67.9915 19.08C67.9957 26.3288 67.9936 33.5776 67.9915 40.8263C67.9915 41.6957 67.6016 42.1836 66.9432 42.1687C66.3103 42.1538 65.9545 41.6936 65.9545 40.8476C65.9502 35.2949 65.9545 29.7401 65.9545 24.1874C65.9545 23.9253 65.9545 23.6632 65.9545 23.3628H52.4072V24.1363C52.4072 27.147 52.4072 30.1577 52.4072 33.1685C52.4072 34.3872 52.1238 34.6706 50.9157 34.6728C46.52 34.6728 42.1264 34.6728 37.7307 34.6728H36.8294C36.8294 34.9412 36.8294 35.1777 36.8294 35.4121C36.8294 38.4676 36.8294 41.5231 36.8294 44.5786C36.8294 45.7015 36.5247 46.0126 35.4039 46.0126C30.9869 46.0147 26.5699 46.0126 22.1528 46.0126C21.8886 46.0126 21.6244 46.0126 21.2729 46.0126V46.7796C21.2729 49.7904 21.2729 52.8011 21.2729 55.8118C21.2729 57.0541 20.9916 57.3311 19.7302 57.3311C15.3579 57.3311 10.9856 57.3311 6.61335 57.3311H5.75039V66.6019H65.9523C65.9523 66.3015 65.9523 66.0181 65.9523 65.7347C65.9523 59.1102 65.9523 52.4858 65.9523 45.8613C65.9523 44.7171 66.2549 44.2185 66.9516 44.21C67.6569 44.2014 67.9915 44.7235 67.9915 45.8357C67.9915 52.9503 67.9872 60.0648 68 67.1815C68 67.8036 67.8807 68.3193 67.3373 68.6751H4.2866L4.293 68.6772ZM24.2814 28.2933C24.0875 28.4127 23.9704 28.4723 23.8681 28.5469C19.238 31.9156 14.6058 35.28 9.99273 38.6722C9.76261 38.8405 9.59639 39.2517 9.59426 39.5522C9.56869 43.3854 9.57506 47.2186 9.57933 51.0518C9.57933 51.2861 9.60493 51.5205 9.61772 51.7443H19.1847V46.0552C18.961 46.0211 18.7863 45.9976 18.6116 45.9699C17.0646 45.7313 16.0887 44.5168 16.1974 42.9613C16.2954 41.5508 17.4951 40.4662 18.9951 40.4428C19.6194 40.4322 20.2437 40.4428 20.868 40.4428C21.9973 40.4428 23.1244 40.4428 24.2836 40.4428V28.2955L24.2814 28.2933ZM41.0547 16.0842C40.8714 16.1971 40.7563 16.2568 40.6519 16.3335C36.0197 19.7043 31.3896 23.0837 26.7467 26.4417C26.3973 26.6953 26.3526 26.9744 26.3547 27.3451C26.3632 31.4724 26.3589 35.5975 26.3589 39.7248V40.4045H34.769V34.7495C34.3343 34.6557 33.9294 34.6152 33.5566 34.4831C32.3399 34.0506 31.5771 32.7615 31.7668 31.515C31.982 30.1002 33.0984 29.1286 34.6177 29.1051C36.514 29.0774 38.4104 29.0966 40.3068 29.0966C40.5454 29.0966 40.7819 29.0966 41.0547 29.0966V16.0863V16.0842ZM50.334 23.3862C50.2275 23.3543 50.187 23.3351 50.1444 23.3308C48.4014 23.1732 47.2658 22.029 47.3212 20.4799C47.3766 18.8776 48.5975 17.793 50.3596 17.7866C51.9875 17.7824 53.6153 17.7866 55.2432 17.7866C56.0849 17.7866 56.9265 17.7866 57.8001 17.7866V7.62941C56.2191 7.62941 54.6807 7.61237 53.1445 7.64433C52.8163 7.65072 52.4392 7.76791 52.175 7.95755C49.2964 10.0265 46.4433 12.1274 43.5668 14.1964C43.2131 14.4499 43.1065 14.7163 43.1087 15.1339C43.1236 19.5488 43.1172 23.9637 43.1172 28.3786C43.1172 28.5959 43.1172 28.8111 43.1172 29.0519H50.3361V23.3862H50.334ZM65.9225 19.8449C65.7329 19.8322 65.6221 19.8172 65.5134 19.8172C60.4571 19.8172 55.4009 19.8172 50.3468 19.8172C50.236 19.8172 50.0847 19.7789 50.0208 19.8364C49.7928 20.0388 49.4178 20.2796 49.4284 20.4927C49.4391 20.7612 49.7438 21.0467 49.9782 21.264C50.0762 21.3556 50.3212 21.2981 50.4981 21.2981C55.4435 21.2981 60.3869 21.2981 65.3323 21.2981C65.5241 21.2981 65.7159 21.2725 65.9268 21.2576V19.8471L65.9225 19.8449ZM19.2018 53.8494C19.0036 53.8366 18.8715 53.8217 18.7394 53.8217C13.7066 53.8217 8.67379 53.8217 3.64098 53.8217C3.50674 53.8217 3.32348 53.777 3.25104 53.8452C3.02944 54.0561 2.70347 54.3118 2.69921 54.5526C2.69708 54.7933 3.00817 55.0682 3.23829 55.2642C3.34483 55.3537 3.58133 55.2962 3.76031 55.2962C8.70363 55.2962 13.6469 55.2962 18.5924 55.2962C18.7863 55.2962 18.9781 55.2728 19.2039 55.26V53.8494H19.2018ZM34.769 42.5032C34.5836 42.4905 34.4323 42.4713 34.2832 42.4713C29.2695 42.4713 24.2559 42.4713 19.2444 42.4713C19.1101 42.4713 18.9269 42.4329 18.8544 42.5032C18.6201 42.7291 18.2621 42.9997 18.2685 43.2469C18.2749 43.4855 18.6499 43.7455 18.9077 43.933C19.027 44.0203 19.2529 43.9628 19.4319 43.9628C24.3113 43.9628 29.1907 43.9628 34.0701 43.9628C34.3045 43.9628 34.5389 43.9394 34.7711 43.9266V42.5054L34.769 42.5032ZM50.3297 31.1784C50.1209 31.1634 49.9888 31.1464 49.8546 31.1464C44.8601 31.1464 39.8657 31.1464 34.8713 31.1464C34.737 31.1464 34.5623 31.108 34.4792 31.1762C34.2278 31.3829 33.84 31.6279 33.8336 31.8666C33.8272 32.1116 34.1787 32.4057 34.4302 32.6017C34.5602 32.7018 34.818 32.6422 35.0183 32.6422C39.8785 32.6422 44.7408 32.6422 49.601 32.6422C49.8375 32.6422 50.0762 32.6422 50.3297 32.6422V31.1784Z" fill="white"/>
</svg>
